<svg width="203" height="188" viewBox="0 0 203 188" fill="none" xmlns="http://www.w3.org/2000/svg">
<path d="M176.438 32.2295C176.713 30.5533 176.946 28.8634 177.276 27.201C177.34 26.3197 177.75 25.4995 178.417 24.9201C179.084 24.3406 179.953 24.0492 180.835 24.1097C181.307 24.0866 181.779 24.1618 182.221 24.3303C182.663 24.4989 183.065 24.7572 183.402 25.089C183.739 25.4208 184.003 25.8189 184.178 26.258C184.354 26.6972 184.436 27.168 184.42 27.6406C184.36 33.0851 183.71 38.5069 182.483 43.8116C181.989 46.216 179.832 46.9441 177.51 46.6831C173.086 46.161 168.662 45.6389 164.265 44.9657C161.902 44.6085 159.827 43.4544 160.061 40.6791C160.295 37.9038 162.52 37.3542 164.993 37.4504C165.914 37.4504 167.178 38.0412 167.741 36.9558C168.304 35.8704 167.054 35.2109 166.367 34.5652C151.914 20.2353 134.767 11.401 114.488 8.79054C96.3576 6.46958 77.9552 9.8827 61.8628 18.5511C45.7704 27.2195 32.7953 40.7082 24.7579 57.1248C24.3472 58.027 23.8356 58.8797 23.2329 59.6666C22.7163 60.4591 21.9155 61.0234 20.9954 61.2433C20.0752 61.4631 19.1058 61.3216 18.2868 60.8481C17.8562 60.6568 17.4681 60.3816 17.1451 60.0386C16.8221 59.6955 16.5707 59.2915 16.4057 58.8501C16.2407 58.4088 16.1653 57.939 16.184 57.4682C16.2026 56.9974 16.315 56.535 16.5145 56.1082C17.4613 53.6876 18.596 51.3448 19.908 49.1012C37.0682 20.0017 62.307 3.15751 96.1053 0.368461C126.922 -2.18702 152.875 8.61193 174.212 30.8419C174.676 31.4289 175.09 32.054 175.449 32.7104L176.438 32.2295Z" fill="#FF4081"/>
<path d="M102.645 187.056C69.3139 185.6 42.1929 171.311 23.6451 141.799C22.7932 140.425 22.0651 139.051 21.3506 137.554C20.901 136.791 20.7671 135.883 20.9776 135.023C21.1881 134.163 21.7262 133.42 22.4772 132.951C22.8404 132.655 23.2585 132.434 23.7073 132.3C24.1562 132.166 24.6271 132.122 25.093 132.171C25.559 132.219 26.0107 132.359 26.4224 132.583C26.8341 132.806 27.1976 133.109 27.492 133.473C28.2583 134.298 28.9099 135.222 29.4292 136.221C55.5336 182.082 115.862 191.851 155.582 161.982C165.511 154.524 173.686 144.98 179.529 134.023C179.996 133.143 180.395 132.237 180.903 131.371C182.167 129.118 183.871 127.483 186.591 128.884C189.312 130.286 189.119 132.47 187.965 134.916C180.526 150.114 169.023 162.954 154.73 172.011C136.704 183.497 120.451 186.369 102.645 187.056Z" fill="#FF4081"/>
<path d="M102.302 85.3588C98.7981 89.9751 95.3084 94.5915 91.7774 99.1803C88.8647 102.959 86.4329 103.014 83.5339 99.1803C80.003 94.6464 76.5957 89.9889 73.0372 85.2626C71.9106 86.6365 72.3228 88.0104 72.3228 89.137C72.3228 97.2981 72.3228 105.459 72.2541 113.634C72.2541 117.357 70.4543 119.679 67.8988 119.363C64.6426 118.965 63.8732 116.615 63.8732 113.716C63.8732 100.225 63.8732 86.7373 63.8732 73.2546C63.8732 70.8915 64.2167 68.7344 66.8134 67.8551C69.4101 66.9758 70.9351 68.652 72.3091 70.5205C76.7468 76.4696 81.267 82.3637 85.6223 88.3814C87.1198 90.4423 88.0129 90.6621 89.6204 88.3814C93.9757 82.3637 98.5645 76.5245 103.002 70.5205C104.376 68.652 105.874 66.9346 108.498 67.704C111.122 68.4734 111.576 70.7129 111.576 73.0485C111.576 86.5312 111.576 100.018 111.576 113.51C111.576 116.423 110.847 119.322 107.248 119.212C103.648 119.102 103.222 116.231 103.222 113.29C103.222 104.03 103.222 94.7838 103.222 85.5374L102.302 85.3588Z" fill="#FF4081"/>
<path d="M101.491 170.912C76.1836 170.033 54.3658 159.042 38.1399 137.21C37.4651 136.346 36.8631 135.427 36.3401 134.462C35.9692 133.803 35.8553 133.03 36.0201 132.292C36.185 131.554 36.617 130.903 37.2331 130.464C37.7926 129.943 38.5291 129.653 39.294 129.653C40.0589 129.653 40.7953 129.943 41.3548 130.464C42.2644 131.28 43.0717 132.202 43.7592 133.212C71.1001 169.909 121.839 174.32 154.881 142.83C158.619 139.205 161.933 135.167 164.76 130.794C165.266 129.943 165.821 129.122 166.422 128.335C167.796 126.617 169.692 125.875 171.643 127.249C173.594 128.623 173.017 130.423 172.042 132.182C167.823 139.202 162.518 145.509 156.324 150.867C141.101 164.057 123.405 170.596 101.491 170.912Z" fill="#FF4081"/>
<path d="M0 114.747C0.247304 113.991 0.522098 112.906 0.934272 111.889C6.24674 98.5895 11.5775 85.3083 16.9266 72.0455C17.3627 70.6173 18.2436 69.3657 19.4409 68.4733C21.7765 66.9483 24.2221 67.8688 25.5685 71.07C28.0691 76.9916 30.4047 82.9681 32.7816 88.9309C35.9004 96.7347 39.0329 104.525 42.1105 112.287C43.4844 115.846 42.8798 118.429 40.3381 119.157C37.0682 120.119 35.1722 117.962 34.6089 115.351C33.235 109.224 29.5666 107.506 23.8924 108.482C22.9136 108.634 21.9172 108.634 20.9384 108.482C14.4124 107.534 9.31513 108.633 7.85879 116.34C7.76124 116.87 7.55225 117.372 7.24567 117.814C6.93908 118.256 6.54194 118.628 6.08062 118.905C5.6193 119.181 5.10435 119.357 4.57 119.419C4.03565 119.482 3.49414 119.43 2.98141 119.267C0.975497 118.759 0.0137391 117.179 0 114.747ZM21.5155 82.8719C19.1661 88.7935 17.2014 93.6709 15.2917 98.5757C14.6871 100.128 15.5939 100.54 16.9541 100.527C19.9218 100.527 22.8757 100.527 25.8433 100.527C27.492 100.527 28.1378 99.8672 27.5058 98.2323C25.6372 93.451 23.7824 88.6698 21.5155 82.8719Z" fill="#FF4081"/>
<path d="M117.277 93.7396C117.277 87.0624 117.277 80.3714 117.277 73.6942C117.277 68.9817 118.528 67.5391 123.075 67.4704C130.742 67.3605 138.422 67.4704 146.102 67.4704C148.973 67.4704 151.598 68.4321 151.598 71.702C151.598 74.9719 149.015 75.8237 146.102 75.8237C140.524 75.8237 134.96 75.9199 129.395 75.8237C126.647 75.7551 125.631 76.758 125.672 79.4921C125.892 91.5963 124.298 89.3019 135.221 89.5492C137.694 89.5492 140.18 89.5492 142.653 89.5492C145.127 89.5492 147.105 90.9231 147.174 93.5061C147.242 96.089 145.388 97.6278 142.887 97.6965C138.765 97.8888 134.726 97.8064 130.632 97.8476C125.85 97.8476 125.727 97.9987 125.699 102.931C125.699 106.654 125.699 110.364 125.699 114.074C125.699 116.904 124.724 119.5 121.358 119.391C117.992 119.281 117.346 116.711 117.36 113.826C117.319 107.108 117.277 100.431 117.277 93.7396Z" fill="#FF4081"/>
<path d="M100.406 14.4648C102.892 14.4648 105.063 15.1793 105.297 17.8859C105.558 20.9085 103.195 21.774 100.68 22.0763C83.4807 24.0446 67.3237 31.3306 54.462 42.9186C49.2335 47.6609 44.618 53.0379 40.7228 58.9247C40.0811 59.9737 39.3052 60.9343 38.4146 61.7824C37.7889 62.4057 36.9416 62.7557 36.0584 62.7557C35.1751 62.7557 34.3279 62.4057 33.7021 61.7824C33.046 61.1952 32.6308 60.3856 32.5369 59.5101C32.443 58.6346 32.677 57.7554 33.1938 57.0424C35.6668 52.6236 38.6005 48.4788 41.9456 44.6772C56.4341 27.5958 76.98 16.7959 99.2653 14.5472C99.6637 14.4785 100.048 14.4923 100.406 14.4648Z" fill="#FF4081"/>
<path d="M181.109 96.8035C181.109 90.9781 180.999 85.1664 181.109 79.3547C181.178 76.6069 180.134 75.5215 177.427 75.7551C175.698 75.8581 173.963 75.8581 172.234 75.7551C171.702 75.7981 171.168 75.7336 170.661 75.5654C170.155 75.3972 169.688 75.1287 169.288 74.7761C168.888 74.4235 168.563 73.9939 168.333 73.513C168.102 73.032 167.971 72.5096 167.947 71.9768C167.865 71.4453 167.9 70.9023 168.05 70.3857C168.199 69.8691 168.46 69.3913 168.813 68.9857C169.166 68.5802 169.604 68.2566 170.095 68.0376C170.586 67.8186 171.119 67.7094 171.657 67.7177C180.548 67.2299 189.46 67.2299 198.352 67.7177C198.889 67.7056 199.423 67.8095 199.916 68.0223C200.41 68.2351 200.851 68.5518 201.211 68.9509C201.571 69.3499 201.841 69.8219 202.002 70.3346C202.163 70.8473 202.211 71.3887 202.144 71.9219C201.993 74.3949 200.33 75.5765 197.926 75.7689C197.431 75.7689 196.937 75.7689 196.442 75.7689C189.133 75.8513 189.408 74.6147 189.421 83.133C189.421 92.7504 189.421 102.437 189.421 112.095C189.421 117.192 188.048 119.487 185.08 119.446C182.112 119.404 181.109 117.453 181.109 112.026V96.8035Z" fill="#FF4081"/>
<path d="M57.457 93.7259V113.73C57.457 116.107 56.935 118.209 54.4757 119.226C51.6591 120.339 49.1037 118.044 49.0624 114.17C48.98 106.874 49.0624 99.5925 49.0624 92.3108C49.0624 86.0091 49.0624 79.7075 49.0624 73.4058C49.0624 70.658 49.6944 68.1025 53.0605 67.7453C55.671 67.4705 57.4158 69.6825 57.457 73.392C57.457 80.1379 57.457 86.9388 57.457 93.7259Z" fill="#FF4081"/>
<path d="M155.953 93.4373C155.953 86.7464 155.953 80.0691 155.953 73.3782C155.953 70.5479 156.475 68.0474 159.924 67.7726C162.671 67.5666 164.334 69.7236 164.348 73.4332C164.403 86.8059 164.403 100.174 164.348 113.538C164.348 116.464 163.633 119.391 160.088 119.349C156.544 119.308 155.967 116.492 155.967 113.496C155.98 106.806 155.953 100.142 155.953 93.4373Z" fill="#FF4081"/>
</svg>
