<svg xmlns="http://www.w3.org/2000/svg" width="50" height="446"><path fill="#344ABD" fill-rule="evenodd" d="M.713 93.095c0-12.626 8.06-25.039 24.464-25.039 16.826 0 24.746 12.977 24.746 25.674v20.805H.713v-21.44zm8.485 12.555h32.028l-.07-12.132c0-8.817-5.657-16.575-16.12-16.575-11.031 0-15.838 8.464-15.838 16.363v12.344zm29.978-52.468l-4.03-8.676c2.192-2.186 6.221-6.56 6.221-16.083 0-11.776-8.413-22.004-23.473-18.972v.282c11.879-.775 16.757 8.817 16.757 20.172 0 11.287-5.939 22.57-16.686 22.57C6.722 52.475.43 42.673.43 27.015.43 8.747 10.47 0 24.753 0c16.827 0 25.17 13.261 25.17 27.861 0 10.649-3.181 19.678-10.747 25.321zM9.975 26.309c0 9.804 2.404 15.869 7.707 15.869 5.656 0 8.484-7.052 8.484-15.94 0-9.591-3.393-15.659-8.201-15.659-4.525 0-7.99 6.068-7.99 15.73zm39.453 142.248v9.31H.713l-.141-28.635c0-9.593 7.919-17.422 17.393-17.422 7.777 0 14.353 5.148 16.827 11.99l14.565-12.978v13.049L36.489 154.52v14.037h12.939zm-21.565-17.774c0-5.361-4.596-9.593-9.898-9.593-5.02 0-9.192 4.232-9.192 9.593v17.774h19.09v-17.774zm21.565 86.816v9.451L.713 229.558v-18.972l48.715-17.421v9.52l-15.13 5.643v23.63l15.13 5.641zM25.389 211.29l-23.616 8.606v.352l23.616 8.675V211.29zm-5.02 54.726c-6.01 2.468-11.101 8.042-11.101 17.916 0 9.38 5.444 17.492 15.555 17.492 11.595 0 16.12-10.158 16.12-20.526 0-10.72-4.454-18.409-7.636-20.877h-.494v23.559h-8.627v-24.475h18.455c3.534 5.077 7.353 12.13 7.353 23.064 0 14.176-8.485 28.847-25.383 28.847-16.615 0-24.605-13.825-24.605-27.367 0-11.849 5.797-22.499 17.605-26.45l2.758 8.817zm20.574 98.317v-41.404h8.414v53.957h-10.11L9.339 336.471v40.204H.713v-52.757h10.04l30.19 40.415zm8.485 37.302l-15.13 5.643v23.628l15.13 5.642V446L.713 428.508v-18.974l48.715-17.42v9.521zm-24.039 8.605l-23.616 8.605v.353l23.616 8.675V410.24z"/></svg>