<?xml version="1.0" encoding="utf-8"?>
<!-- Generator: Adobe Illustrator 27.8.0, SVG Export Plug-In . SVG Version: 6.00 Build 0)  -->
<svg version="1.1" id="Ebene_1" xmlns="http://www.w3.org/2000/svg" xmlns:xlink="http://www.w3.org/1999/xlink" x="0px" y="0px"
	 viewBox="0 0 2280 637" enable-background="new 0 0 2280 637" xml:space="preserve">
<g>
	<path fill="none" d="M1052.64,594c-349.26,0-698.53-0.01-1047.79,0.11c-4.07,0-4.86-0.83-4.85-4.85
		c0.14-91.93,0.14-183.87,0.02-275.8c0-3.53,0.66-4.35,4.32-4.35c698.86,0.1,1397.72,0.1,2096.58,0.01c3.44,0,4.09,0.69,4.08,4.09
		c-0.12,92.1-0.12,184.2,0,276.3c0,3.68-0.76,4.6-4.57,4.6C1751.17,593.99,1401.9,594,1052.64,594z M2103.29,483.28
		c0.29-32.41-7.4-58.42-26.57-79.68c-27.38-30.37-62.33-41.51-102.47-35.03c-38.32,6.19-66.8,26.36-82.17,62.61
		c-12.51,29.5-12.69,59.85-2.74,89.99c8.98,27.21,26.59,47.51,52.79,60.02c20.48,9.77,41.97,13.81,64.53,10.81
		c32.35-4.29,59.37-17.89,77.8-45.73C2097.89,525.98,2103.67,503.48,2103.29,483.28z M691.03,484.94c0,34.35,0.06,68.71-0.09,103.06
		c-0.02,3.87,0.92,5.39,4.96,4.98c3.46-0.35,6.99-0.04,10.49-0.08c7.93-0.09,7,1.06,7-6.75c-0.04-53.6-0.1-107.2-0.25-160.81
		c-0.01-4.7,1.49-8.08,5.25-11.09c14.55-11.64,30.48-20.81,47.95-27.24c15.16-5.58,30.78-8.37,47.05-6.4
		c26.69,3.24,37.19,14.87,37.19,41.53c0.01,55.26,0.04,110.53-0.07,165.79c-0.01,3.74,0.7,5.44,4.86,5.04
		c3.96-0.38,8.01-0.36,11.98-0.01c4.12,0.37,5.3-0.93,5.29-5.14c-0.16-44.14-0.1-88.29-0.1-132.44c0-12.12,0.17-24.23-0.04-36.34
		c-0.42-23.82-11.04-37.82-33.88-43.62c-18.18-4.62-36.54-4.87-54.84,0.07c-24.27,6.55-46.35,17.35-65.95,33.12
		c-1.46,1.18-2.95,3.56-5,2.45c-1.96-1.06-0.87-3.65-0.89-5.55c-0.1-8.46-0.15-16.93,0.01-25.39c0.06-3.01-0.71-4.2-3.95-3.78
		c-3.62,0.47-7.34,0.76-10.96,0.49c-4.71-0.35-6.15,1.11-6.11,6.02C691.14,416.9,691.03,450.92,691.03,484.94z M469.98,485.01
		c0,34.34,0.07,68.69-0.09,103.03c-0.02,3.92,0.99,5.31,4.98,4.95c3.8-0.35,7.69-0.42,11.47,0.01c4.93,0.57,5.98-1.24,5.97-5.98
		c-0.18-53.59-0.05-107.18-0.21-160.77c-0.02-5.53,1.74-9.25,6.1-12.67c14.92-11.7,31.17-20.98,49.06-27.25
		c18.76-6.57,37.88-8.8,57.39-3.27c12.37,3.5,20.62,11.16,23.7,23.8c1.06,4.36,1.23,8.85,1.23,13.35
		c-0.02,55.91,0.02,111.83-0.09,167.74c-0.01,3.7,0.65,5.43,4.83,5.06c4.46-0.39,9-0.28,13.48-0.02c3.17,0.18,3.89-0.99,3.88-3.97
		c-0.12-56.74,0.07-113.48-0.29-170.22c-0.15-24.64-12.22-38.77-36.49-44.05c-20.78-4.52-41.27-3.39-61.52,3.46
		c-20.71,7.01-39.76,16.87-56.78,30.59c-1.38,1.11-2.81,3.21-4.61,2.45c-2.26-0.95-1.06-3.54-1.09-5.38
		c-0.12-8.29-0.31-16.6,0.05-24.88c0.18-4.24-1.3-5.08-5.12-4.57c-3.61,0.49-7.32,0.66-10.96,0.47c-3.93-0.21-5,1.16-4.98,5.09
		C470.05,416.32,469.98,450.67,469.98,485.01z M432.32,478.84c0.08-25.79-6.23-49.92-22.47-70.2
		c-27.21-33.98-63.53-46.5-106.09-40.09c-35.5,5.34-62.93,23.28-79.64,55.8c-12.89,25.08-14.97,51.69-10.49,78.99
		c3.85,23.41,13.81,44.12,31.55,60.17c26.33,23.82,57.7,33.04,92.8,28.13c33.55-4.7,60.57-20.27,78.27-49.97
		C427.8,522.29,432.52,501.19,432.32,478.84z M1611.17,558.29c1.31,0.94,0.92,2.4,1.12,3.63c3.16,19.75,12.17,28.5,32.03,30.72
		c10.68,1.19,20.89-0.7,30.52-5.53c1.63-0.82,2.94-1.95,2.16-3.88c-0.97-2.38-2.54-0.54-3.65-0.09c-7.45,3.01-15.19,3.54-23.07,2.9
		c-7.55-0.61-12.69-4.44-15.22-11.65c-2.23-6.36-2.71-12.96-2.71-19.61c-0.06-48.77,0-97.55-0.18-146.32
		c-0.06-16.14-8.15-27.22-22.99-33.51c-4.15-1.76-8.38-3.31-12.81-4.09c-34.28-6.03-68.22-5.98-101.45,5.95
		c-3.34,1.2-5.5,5.39-3.66,8.03c1.85,2.65,3.82-0.18,5.49-0.84c30.38-12.19,61.56-13.53,93.09-6.07
		c14.13,3.34,20.21,12.36,20.43,26.91c0.11,7.63-0.55,15.32,0.21,22.88c1,9.87-3.05,16.95-10.21,22.96
		c-9.37,7.88-19.83,14.02-31.02,18.83c-16.64,7.17-33.43,14.01-50.18,20.93c-8.5,3.51-16.59,7.71-23.72,13.57
		c-17.45,14.33-20.2,33.21-15.82,53.71c3.95,18.48,17.05,28.49,34.72,32.41c36.62,8.14,67.55-2.94,93.69-28.96
		C1608.94,560.16,1609.46,558.57,1611.17,558.29z M1107.28,556.73c-1.23,0.87-2.19,1.48-3.06,2.19
		c-22.56,18.52-48.48,26.97-77.66,26.16c-39.94-1.11-67.26-21.33-79.43-59.29c-7.17-22.38-7.41-45.33-5.41-68.48
		c0.42-4.85,2.08-6.06,6.93-6.04c51.45,0.21,102.9,0.08,154.35,0.22c4.22,0.01,5.69-1.27,5.33-5.3c-0.43-4.95-0.43-9.95-0.99-14.88
		c-3.42-30.29-21.43-51.32-50.89-59.66c-7.71-2.19-15.58-3.43-23.54-4.24c-43.34-4.39-82.71,16.49-102.14,55.29
		c-16.09,32.14-16.94,65.82-6.56,99.75c7.77,25.38,23.7,44.62,47.32,57.23c14.62,7.8,30.34,11.82,46.81,12.88
		c31.57,2.04,60.41-5.21,85.48-25.24C1107.27,564.57,1108.6,561.59,1107.28,556.73z M1456.29,574.25
		c-13.73,8.67-28.54,11.07-43.93,10.5c-18.8-0.69-28.72-10.04-30.8-28.61c-0.2-1.81-0.25-3.64-0.25-5.47
		c-0.01-55.93,0.04-111.85-0.11-167.78c-0.01-4.22,1.49-4.83,5.16-4.8c19.65,0.15,39.31,0.05,58.96,0.1
		c2.58,0.01,4.39-0.01,4.31-3.56c-0.08-3.63-2.33-2.9-4.36-2.91c-19.65-0.02-39.31-0.14-58.96,0.09c-4.17,0.05-5.29-1.1-5.24-5.22
		c0.23-17.09-0.01-34.19,0.18-51.28c0.04-3.97-1.01-4.45-4.41-2.95c-4.56,2.01-9.23,3.82-13.97,5.36c-2.88,0.93-3.73,2.44-3.7,5.39
		c0.15,14.77-0.04,29.54,0.15,44.31c0.04,3.45-0.98,4.51-4.44,4.64c-8.32,0.31-16.61,1.08-24.92,1.68
		c-1.73,0.13-3.85-0.34-3.61,2.65c0.22,2.78,2.26,1.94,3.7,1.95c7.99,0.07,16,0.32,23.98-0.08c4.54-0.23,5.44,1.26,5.43,5.54
		c-0.16,45.97-0.1,91.94-0.1,137.91c0,8.96-0.15,17.93,0.04,26.88c0.43,20.3,10.74,35.69,28.3,40.8
		c21.93,6.37,43.44,4.27,64.31-5.01C1456.5,582.41,1457.82,579.43,1456.29,574.25z M1670.02,377.12c0.79,2.01,1.3,3.39,1.86,4.75
		c27.53,67.21,55.07,134.43,82.61,201.64c3.86,9.41,3.88,9.11,13.97,9.54c4.67,0.2,6.56-1.49,8.26-5.6
		c28.23-68.18,56.64-136.29,85.01-204.42c2.81-6.74,2.65-6.75-4.71-6.4c-3.92,0.18-3.81,3.29-4.7,5.46
		c-25.82,62.36-51.54,124.76-77.3,187.15c-0.55,1.33-0.64,3.52-2.25,3.57c-2.07,0.06-1.92-2.39-2.48-3.77
		c-13.44-33.74-26.81-67.51-40.18-101.27c-11.48-28.98-23-57.96-34.38-86.98c-1.11-2.84-2.42-4.16-5.67-4.2
		C1683.57,376.51,1677.11,376.51,1670.02,377.12z M189.96,558.86c-1.26,0.83-2.25,1.39-3.13,2.09
		c-21.75,17.38-46.82,24.79-74.39,23.92c-35.52-1.11-61.62-17.26-76.48-49.79c-12.43-27.22-13.72-55.9-8.28-84.82
		c5.15-27.38,18-50.88,43.17-64.52c35.79-19.39,71.33-15.91,105.39,5.65c2.3,1.45,4.42,3.17,6.92,4.99
		c1.25-9.79,1.2-9.82-6.31-14.21c-23.87-13.94-49.97-17.16-76.72-14c-34.68,4.1-63.01,20-81.62,50.17
		c-22.53,36.52-22.22,74.99-6.32,113.57c11.84,28.72,33.78,47.64,63.79,55.74c38.96,10.52,76.17,7.01,109.9-17.4
		C189.99,567.28,191.81,564.34,189.96,558.86z M1313.28,396.3c1.51-9.61,1.42-9.7-5.63-13.87c-23.49-13.89-49.21-17.19-75.69-14.38
		c-34.99,3.71-63.15,19.65-82.69,49.44c-17.6,26.84-20.65,56.42-15.22,87.05c5.69,32.1,21.53,57.92,50.73,74.34
		c32.24,18.13,91.42,23.27,133.59-10.17c3.69-2.92,2.78-6.06,1.92-9.93c-1.33,0.92-2.31,1.53-3.21,2.24
		c-21.62,17.27-46.53,24.64-73.93,23.86c-35.98-1.02-62.24-17.43-77.14-50.4c-11.51-25.46-12.9-52.31-8.82-79.52
		c3.33-22.21,12.03-42.05,28.62-57.82c26.42-25.1,58.02-27.12,91.45-19.69C1290.64,380.43,1302.12,387.61,1313.28,396.3z"/>
	<path fill="#01B3F0" d="M2103.29,483.28c0.38,20.2-5.4,42.7-18.84,62.99c-18.43,27.84-45.45,41.44-77.8,45.73
		c-22.56,2.99-44.05-1.04-64.53-10.81c-26.2-12.51-43.8-32.81-52.79-60.02c-9.95-30.14-9.76-60.49,2.74-89.99
		c15.37-36.25,43.85-56.42,82.17-62.61c40.14-6.48,75.09,4.66,102.47,35.03C2095.88,424.87,2103.57,450.87,2103.29,483.28z"/>
	<path fill="#fff" d="M691.03,484.94c0-34.02,0.11-68.04-0.12-102.06c-0.03-4.91,1.41-6.37,6.11-6.02
		c3.63,0.27,7.34-0.02,10.96-0.49c3.24-0.42,4.01,0.77,3.95,3.78c-0.16,8.46-0.11,16.93-0.01,25.39c0.02,1.89-1.07,4.48,0.89,5.55
		c2.05,1.11,3.54-1.28,5-2.45c19.6-15.77,41.68-26.57,65.95-33.12c18.3-4.94,36.66-4.69,54.84-0.07
		c22.84,5.8,33.46,19.81,33.88,43.62c0.21,12.11,0.04,24.23,0.04,36.34c0,44.15-0.06,88.29,0.1,132.44
		c0.02,4.22-1.17,5.51-5.29,5.14c-3.97-0.35-8.02-0.38-11.98,0.01c-4.16,0.4-4.87-1.3-4.86-5.04c0.11-55.26,0.08-110.53,0.07-165.79
		c0-26.66-10.5-38.29-37.19-41.53c-16.27-1.98-31.89,0.82-47.05,6.4c-17.46,6.43-33.4,15.6-47.95,27.24
		c-3.75,3-5.26,6.39-5.25,11.09c0.16,53.6,0.21,107.2,0.25,160.81c0.01,7.81,0.93,6.66-7,6.75c-3.5,0.04-7.02-0.27-10.49,0.08
		c-4.04,0.4-4.98-1.11-4.96-4.98C691.09,553.65,691.03,519.3,691.03,484.94z"/>
	<path fill="#fff" d="M469.98,485.01c0-34.34,0.07-68.69-0.09-103.03c-0.02-3.93,1.05-5.29,4.98-5.09
		c3.64,0.19,7.35,0.02,10.96-0.47c3.82-0.52,5.3,0.33,5.12,4.57c-0.36,8.28-0.18,16.59-0.05,24.88c0.03,1.84-1.17,4.43,1.09,5.38
		c1.8,0.76,3.22-1.34,4.61-2.45c17.02-13.72,36.07-23.59,56.78-30.59c20.25-6.85,40.75-7.98,61.52-3.46
		c24.27,5.27,36.34,19.41,36.49,44.05c0.36,56.74,0.16,113.48,0.29,170.22c0.01,2.99-0.71,4.16-3.88,3.97
		c-4.48-0.26-9.02-0.37-13.48,0.02c-4.18,0.37-4.84-1.35-4.83-5.06c0.11-55.91,0.07-111.83,0.09-167.74c0-4.5-0.17-8.99-1.23-13.35
		c-3.08-12.63-11.33-20.29-23.7-23.8c-19.5-5.53-38.63-3.29-57.39,3.27c-17.89,6.26-34.14,15.54-49.06,27.25
		c-4.36,3.42-6.12,7.14-6.1,12.67c0.17,53.59,0.03,107.18,0.21,160.77c0.02,4.74-1.04,6.55-5.97,5.98
		c-3.78-0.44-7.67-0.36-11.47-0.01c-3.99,0.36-5-1.03-4.98-4.95C470.04,553.7,469.98,519.35,469.98,485.01z"/>
	<path fill="#fff" d="M432.32,478.84c0.2,22.36-4.52,43.46-16.07,62.83c-17.71,29.7-44.73,45.27-78.27,49.97
		c-35.1,4.92-66.47-4.31-92.8-28.13c-17.74-16.05-27.7-36.76-31.55-60.17c-4.48-27.3-2.4-53.91,10.49-78.99
		c16.71-32.52,44.14-50.46,79.64-55.8c42.57-6.41,78.89,6.11,106.09,40.09C426.1,428.92,432.4,453.05,432.32,478.84z M409.64,483.37
		c-0.53-23.89-2.94-43.39-11.68-61.62c-14.16-29.54-37.51-46.12-70.38-47.89c-33.36-1.8-59.68,10.89-77.02,40.15
		c-11.53,19.46-15.27,40.86-15.58,63.04c-0.36,25.3,4.07,49.39,17.39,71.54c30.07,49.99,106.75,49.18,137.28,3.58
		C404.47,530.02,409.27,505.33,409.64,483.37z"/>
	<path fill="#fff" d="M1611.17,558.29c-1.71,0.28-2.23,1.87-3.25,2.88c-26.14,26.01-57.07,37.09-93.69,28.96
		c-17.67-3.93-30.76-13.93-34.72-32.41c-4.39-20.5-1.63-39.38,15.82-53.71c7.13-5.86,15.22-10.06,23.72-13.57
		c16.75-6.92,33.54-13.76,50.18-20.93c11.19-4.82,21.65-10.96,31.02-18.83c7.15-6.01,11.21-13.09,10.21-22.96
		c-0.77-7.56-0.1-15.25-0.21-22.88c-0.22-14.55-6.3-23.56-20.43-26.91c-31.53-7.46-62.71-6.12-93.09,6.07
		c-1.66,0.67-3.64,3.5-5.49,0.84c-1.84-2.64,0.33-6.83,3.66-8.03c33.23-11.92,67.17-11.98,101.45-5.95
		c4.43,0.78,8.67,2.33,12.81,4.09c14.84,6.29,22.93,17.37,22.99,33.51c0.19,48.77,0.13,97.55,0.18,146.32
		c0.01,6.65,0.48,13.25,2.71,19.61c2.53,7.21,7.66,11.04,15.22,11.65c7.88,0.64,15.62,0.11,23.07-2.9c1.11-0.45,2.68-2.28,3.65,0.09
		c0.78,1.93-0.52,3.06-2.16,3.88c-9.63,4.83-19.83,6.72-30.52,5.53c-19.85-2.22-28.87-10.97-32.03-30.72
		C1612.09,560.69,1612.48,559.23,1611.17,558.29z M1609.62,448.29c-8.74,11.01-20.69,17.47-32.82,23.61
		c-5.48,2.77-11.16,5.18-16.8,7.61c-11.29,4.87-22.83,9.18-33.82,14.74c-10.14,5.12-18.1,12.34-22.21,23.18
		c-5.37,14.15-5.74,28.5-1.29,42.93c3.02,9.81,9.53,16.57,19,20.45c6.21,2.54,12.71,4.07,19.43,4.1
		c25.51,0.11,46.91-9.37,64.56-27.65c3.33-3.45,4.85-7.1,4.81-11.96c-0.21-31.01-0.16-62.03-0.24-93.04
		C1610.23,451.02,1610.72,449.67,1609.62,448.29z"/>
	<path fill="#fff" d="M1107.28,556.73c1.32,4.86-0.01,7.83-3.43,10.57c-25.07,20.03-53.91,27.29-85.48,25.24
		c-16.46-1.06-32.19-5.08-46.81-12.88c-23.63-12.61-39.55-31.85-47.32-57.23c-10.38-33.92-9.53-67.61,6.56-99.75
		c19.42-38.8,58.8-59.68,102.14-55.29c7.97,0.81,15.83,2.06,23.54,4.24c29.46,8.35,47.46,29.37,50.89,59.66
		c0.56,4.94,0.56,9.93,0.99,14.88c0.35,4.04-1.11,5.32-5.33,5.3c-51.45-0.15-102.9-0.02-154.35-0.22c-4.86-0.02-6.51,1.2-6.93,6.04
		c-2,23.15-1.77,46.1,5.41,68.48c12.17,37.96,39.48,58.17,79.43,59.29c29.17,0.81,55.09-7.64,77.66-26.16
		C1105.09,558.21,1106.05,557.61,1107.28,556.73z M1015.42,444.62c0-0.04,0-0.07,0-0.11c22.31,0,44.61-0.08,66.92,0.08
		c3.6,0.02,4.47-1.17,4.35-4.55c-0.31-9.15-1.19-18.22-3.38-27.11c-4.67-18.94-16.61-30.88-35.52-35.94
		c-11.22-3-22.64-3.83-34.17-2.95c-20.78,1.58-38.1,9.94-51.17,26.41c-9.52,11.99-14.49,25.95-17.79,40.67
		c-0.87,3.87,1.39,3.53,3.83,3.52C970.81,444.61,993.11,444.62,1015.42,444.62z"/>
	<path fill="#fff" d="M1456.29,574.25c1.53,5.18,0.21,8.15-4.29,10.15c-20.87,9.28-42.38,11.38-64.31,5.01
		c-17.56-5.1-27.87-20.49-28.3-40.8c-0.19-8.96-0.04-17.92-0.04-26.88c0-45.97-0.06-91.94,0.1-137.91c0.01-4.28-0.89-5.77-5.43-5.54
		c-7.97,0.4-15.98,0.15-23.98,0.08c-1.45-0.01-3.48,0.83-3.7-1.95c-0.24-3,1.88-2.53,3.61-2.65c8.3-0.6,16.6-1.38,24.92-1.68
		c3.46-0.13,4.48-1.19,4.44-4.64c-0.18-14.77,0.01-29.54-0.15-44.31c-0.03-2.96,0.83-4.46,3.7-5.39c4.74-1.54,9.41-3.35,13.97-5.36
		c3.41-1.5,4.46-1.02,4.41,2.95c-0.19,17.09,0.05,34.19-0.18,51.28c-0.05,4.12,1.07,5.27,5.24,5.22
		c19.65-0.22,39.31-0.11,58.96-0.09c2.03,0,4.28-0.73,4.36,2.91c0.08,3.55-1.73,3.57-4.31,3.56c-19.65-0.05-39.31,0.05-58.96-0.1
		c-3.67-0.03-5.18,0.58-5.16,4.8c0.15,55.93,0.1,111.85,0.11,167.78c0,1.82,0.05,3.66,0.25,5.47c2.08,18.56,12,27.92,30.8,28.61
		C1427.75,585.32,1442.56,582.93,1456.29,574.25z"/>
	<path fill="#fff" d="M1670.02,377.12c7.09-0.61,13.55-0.61,20.04-0.54c3.26,0.04,4.56,1.36,5.67,4.2
		c11.38,29.02,22.9,58,34.38,86.98c13.38,33.76,26.74,67.53,40.18,101.27c0.55,1.39,0.4,3.83,2.48,3.77
		c1.61-0.05,1.7-2.24,2.25-3.57c25.76-62.39,51.49-124.79,77.3-187.15c0.9-2.17,0.79-5.28,4.7-5.46c7.36-0.35,7.51-0.34,4.71,6.4
		c-28.37,68.13-56.77,136.24-85.01,204.42c-1.7,4.12-3.59,5.8-8.26,5.6c-10.09-0.43-10.11-0.13-13.97-9.54
		c-27.54-67.21-55.08-134.42-82.61-201.64C1671.33,380.51,1670.81,379.14,1670.02,377.12z"/>
	<path fill="#fff" d="M189.96,558.86c1.85,5.48,0.03,8.42-4.08,11.4c-33.73,24.41-70.94,27.91-109.9,17.4
		c-30.01-8.1-51.95-27.02-63.79-55.74c-15.9-38.58-16.21-77.05,6.32-113.57c18.61-30.17,46.94-46.07,81.62-50.17
		c26.75-3.16,52.85,0.05,76.72,14c7.51,4.39,7.57,4.42,6.31,14.21c-2.5-1.81-4.63-3.53-6.92-4.99
		c-34.06-21.56-69.6-25.04-105.39-5.65c-25.16,13.63-38.01,37.13-43.17,64.52c-5.44,28.92-4.15,57.6,8.28,84.82
		c14.86,32.53,40.96,48.68,76.48,49.79c27.57,0.86,52.64-6.54,74.39-23.92C187.71,560.25,188.7,559.69,189.96,558.86z"/>
	<path fill="#fff" d="M1313.28,396.3c-11.17-8.69-22.65-15.87-36.01-18.84c-33.42-7.43-65.03-5.42-91.45,19.69
		c-16.59,15.76-25.3,35.61-28.62,57.82c-4.07,27.21-2.68,54.06,8.82,79.52c14.9,32.97,41.16,49.38,77.14,50.4
		c27.4,0.78,52.32-6.59,73.93-23.86c0.89-0.71,1.88-1.32,3.21-2.24c0.86,3.88,1.77,7.01-1.92,9.93
		c-42.17,33.44-101.35,28.3-133.59,10.17c-29.2-16.42-45.04-42.24-50.73-74.34c-5.43-30.64-2.38-60.22,15.22-87.05
		c19.54-29.79,47.7-45.73,82.69-49.44c26.47-2.8,52.19,0.5,75.69,14.38C1314.7,386.59,1314.79,386.68,1313.28,396.3z"/>
	<path fill="none" d="M409.64,483.37c-0.37,21.96-5.17,46.65-19.99,68.79c-30.53,45.61-107.2,46.41-137.28-3.58
		c-13.32-22.15-17.75-46.24-17.39-71.54c0.31-22.18,4.06-43.58,15.58-63.04c17.33-29.26,43.66-41.95,77.02-40.15
		c32.87,1.77,56.23,18.36,70.38,47.89C406.69,439.98,409.11,459.48,409.64,483.37z"/>
	<path fill="none" d="M1609.62,448.29c1.1,1.38,0.61,2.73,0.61,3.97c0.08,31.01,0.03,62.03,0.24,93.04
		c0.03,4.86-1.48,8.51-4.81,11.96c-17.65,18.27-39.04,27.76-64.56,27.65c-6.71-0.03-13.22-1.56-19.43-4.1
		c-9.47-3.88-15.98-10.64-19-20.45c-4.44-14.43-4.08-28.78,1.29-42.93c4.11-10.83,12.07-18.05,22.21-23.18
		c10.99-5.56,22.53-9.87,33.82-14.74c5.65-2.44,11.32-4.84,16.8-7.61C1588.94,465.76,1600.88,459.3,1609.62,448.29z"/>
	<path fill="none" d="M1015.42,444.62c-22.31,0-44.62-0.01-66.92,0.01c-2.44,0-4.7,0.35-3.83-3.52c3.3-14.72,8.26-28.67,17.79-40.67
		c13.07-16.46,30.39-24.83,51.17-26.41c11.53-0.88,22.95-0.05,34.17,2.95c18.91,5.06,30.84,17,35.52,35.94
		c2.19,8.88,3.08,17.95,3.38,27.11c0.11,3.38-0.75,4.58-4.35,4.55c-22.31-0.15-44.61-0.08-66.92-0.08
		C1015.42,444.55,1015.42,444.58,1015.42,444.62z"/>
</g>
</svg>
