<svg width="142" height="35" viewBox="0 0 195 48" fill="none" xmlns="http://www.w3.org/2000/svg">
<path d="M72.3856 7H59V28.6944H72.3856V25.4556H62.5433V19.2833H70.5383V16.1361H62.5433V10.2389H72.3856V7Z" fill="white"></path>
<path d="M85.1076 12.8361C81.9581 21.4528 81.2615 23.5611 80.8981 25.6389C80.4439 23.775 79.717 21.575 76.4161 12.8361H72.6608L79.0811 28.6944H82.6243L88.772 12.8361H85.1076Z" fill="white"></path>
<path d="M96.2922 12.5C91.5982 12.5 88.2366 16.075 88.2366 20.7806C88.2366 25.7306 91.7496 29 96.5345 29C100.229 29 103.136 26.7389 103.984 23.8972L100.926 23.5611C100.259 24.9361 98.8058 26.0972 96.5648 26.0972C93.9603 26.0972 91.9313 24.3861 91.7193 21.9111H104.348C104.499 15.8611 101.077 12.5 96.2922 12.5ZM96.2922 15.3417C98.8664 15.3417 100.683 17.0222 100.774 19.2528H91.7193C91.901 16.9917 93.8089 15.3417 96.2922 15.3417Z" fill="white"></path>
<path d="M109.033 12.8361H106.186V28.6944H109.669L109.639 18.9472C109.76 16.5028 111.547 15.4333 114.575 15.8306L114.605 12.8056C111.91 12.4389 110.365 13.5389 109.517 15.2194L109.033 12.8361Z" fill="white"></path>
<path d="M134.482 12.5C131.938 12.5 130.242 13.6306 129.212 15.25C128.273 13.5083 126.517 12.5 124.397 12.5C122.065 12.5 120.521 13.6 119.612 15.2194L119.097 12.8361H116.22V28.6944H119.703V19.6806C119.703 16.8694 121.217 15.525 123.246 15.525C125.124 15.525 126.608 16.8083 126.608 19.6806V28.6944H130.06V19.6806C130.06 16.8694 131.574 15.525 133.573 15.525C135.511 15.525 136.965 16.8083 136.965 19.6806V28.6944H140.417V18.7944C140.417 14.9139 138.025 12.5 134.482 12.5Z" fill="white"></path>
<path d="M150.476 29C155.352 29 158.926 25.5167 158.926 20.75C158.926 16.0139 155.352 12.5 150.476 12.5C145.631 12.5 142.057 16.0139 142.057 20.75C142.057 25.5167 145.631 29 150.476 29ZM150.476 25.8528C147.599 25.8528 145.449 23.6528 145.449 20.75C145.449 17.8167 147.599 15.6472 150.476 15.6472C153.384 15.6472 155.564 17.8167 155.564 20.75C155.564 23.6528 153.384 25.8528 150.476 25.8528Z" fill="white"></path>
<path d="M168.377 29C173.253 29 176.827 25.5167 176.827 20.75C176.827 16.0139 173.253 12.5 168.377 12.5C163.532 12.5 159.958 16.0139 159.958 20.75C159.958 25.5167 163.532 29 168.377 29ZM168.377 25.8528C165.5 25.8528 163.35 23.6528 163.35 20.75C163.35 17.8167 165.5 15.6472 168.377 15.6472C171.285 15.6472 173.465 17.8167 173.465 20.75C173.465 23.6528 171.285 25.8528 168.377 25.8528Z" fill="white"></path>
<path d="M191.517 15.7389C190.336 13.6611 188.156 12.5 185.794 12.5C180.948 12.5 177.859 16.0139 177.859 20.7194C177.859 25.3028 180.827 29 185.612 29C188.459 29 190.669 27.625 191.517 25.4556V28.6944H195V7.0003L191.517 7V15.7389ZM186.46 25.8528C183.492 25.8528 181.372 23.7444 181.372 20.75C181.372 17.7861 183.492 15.6778 186.46 15.6778C189.397 15.6778 191.517 17.8778 191.517 20.75C191.517 23.6528 189.397 25.8528 186.46 25.8528Z" fill="white"></path>
<path fill-rule="evenodd" clip-rule="evenodd" d="M10.5417 0C4.71967 0 0 4.71967 0 10.5417V35.4583C0 41.2803 4.71967 46 10.5417 46H35.4583C41.2803 46 46 41.2803 46 35.4583V10.5417C46 4.71967 41.2803 0 35.4583 0H10.5417ZM23.0597 25.4306C26.6017 25.4306 29.4731 22.5592 29.4731 19.0172C29.4731 15.4751 26.6017 12.6037 23.0597 12.6037C19.5176 12.6037 16.6462 15.4751 16.6462 19.0172C16.6462 22.5592 19.5176 25.4306 23.0597 25.4306ZM23.0597 29.7062C28.9631 29.7062 33.7487 24.9206 33.7487 19.0172C33.7487 13.1138 28.9631 8.32812 23.0597 8.32812C17.1563 8.32812 12.3706 13.1138 12.3706 19.0172C12.3706 24.9206 17.1563 29.7062 23.0597 29.7062ZM9.59865 33.3213C9.84582 32.5234 9.96941 32.1245 10.2841 31.9503C10.5987 31.7762 11.0146 31.8865 11.8463 32.1072C19.1986 34.058 26.9348 34.049 34.2825 32.081C35.1137 31.8584 35.5293 31.7471 35.8444 31.9205C36.1594 32.0939 36.284 32.4926 36.533 33.2898L36.533 33.2899L36.7196 33.8873C36.9727 34.6977 37.0993 35.103 36.9166 35.4364C36.7338 35.7697 36.3346 35.8782 35.5362 36.0951C27.3744 38.3128 18.7689 38.3228 10.6019 36.1243C9.80304 35.9092 9.40359 35.8017 9.22008 35.4687C9.03658 35.1357 9.16221 34.7302 9.41346 33.9191L9.59865 33.3213Z" fill="white"></path>
<path d="M63.395 43V40.92H63.187V38.515C63.187 38.0383 63.0613 37.6787 62.81 37.436C62.5673 37.1933 62.2077 37.072 61.731 37.072C61.4623 37.072 61.185 37.0763 60.899 37.085C60.613 37.0937 60.34 37.1023 60.08 37.111C59.82 37.1197 59.5947 37.1327 59.404 37.15V36.058C59.5947 36.0407 59.794 36.0277 60.002 36.019C60.2187 36.0017 60.4397 35.993 60.665 35.993C60.8903 35.9843 61.107 35.98 61.315 35.98C62.0257 35.98 62.6063 36.0667 63.057 36.24C63.5077 36.4047 63.8413 36.6777 64.058 37.059C64.2747 37.4403 64.383 37.956 64.383 38.606V43H63.395ZM61.12 43.182C60.6 43.182 60.1493 43.0953 59.768 42.922C59.3953 42.74 59.105 42.48 58.897 42.142C58.6977 41.804 58.598 41.3967 58.598 40.92C58.598 40.426 58.7063 40.0143 58.923 39.685C59.1483 39.3557 59.4733 39.1087 59.898 38.944C60.3227 38.7707 60.834 38.684 61.432 38.684H63.317V39.62H61.38C60.8773 39.62 60.4917 39.7413 60.223 39.984C59.9543 40.2267 59.82 40.5387 59.82 40.92C59.82 41.3013 59.9543 41.609 60.223 41.843C60.4917 42.077 60.8773 42.194 61.38 42.194C61.6747 42.194 61.9563 42.142 62.225 42.038C62.4937 41.9253 62.7147 41.7433 62.888 41.492C63.07 41.232 63.1697 40.8767 63.187 40.426L63.525 40.92C63.4817 41.414 63.3603 41.83 63.161 42.168C62.9703 42.4973 62.7017 42.7487 62.355 42.922C62.017 43.0953 61.6053 43.182 61.12 43.182ZM66.4135 43V36.058H67.4015V39.035H67.2455C67.2455 38.3503 67.3365 37.774 67.5185 37.306C67.7092 36.8293 67.9952 36.4697 68.3765 36.227C68.7579 35.9757 69.2389 35.85 69.8195 35.85H69.8715C70.7469 35.85 71.3925 36.123 71.8085 36.669C72.2332 37.215 72.4455 38.0037 72.4455 39.035V43H71.1975V38.775C71.1975 38.2377 71.0459 37.8087 70.7425 37.488C70.4392 37.1587 70.0232 36.994 69.4945 36.994C68.9485 36.994 68.5065 37.163 68.1685 37.501C67.8305 37.839 67.6615 38.2897 67.6615 38.853V43H66.4135ZM76.335 43L79.754 33.51H81.912L85.435 43H84.122L80.937 34.342L81.561 34.654H80.027L80.69 34.342L77.609 43H76.335ZM78.376 40.166L78.805 39.022H82.9L83.329 40.166H78.376ZM89.634 43.234C89.036 43.234 88.516 43.13 88.074 42.922C87.6406 42.714 87.281 42.4367 86.995 42.09C86.709 41.7347 86.4923 41.3447 86.345 40.92C86.2063 40.4953 86.137 40.0707 86.137 39.646V39.412C86.137 38.97 86.2063 38.5367 86.345 38.112C86.4923 37.6873 86.709 37.306 86.995 36.968C87.2896 36.6213 87.6536 36.344 88.087 36.136C88.5203 35.928 89.0273 35.824 89.608 35.824C90.1886 35.824 90.7086 35.9323 91.168 36.149C91.636 36.3657 92.0086 36.6733 92.286 37.072C92.572 37.462 92.7323 37.9257 92.767 38.463H91.571C91.5103 38.0297 91.311 37.67 90.973 37.384C90.635 37.0893 90.18 36.942 89.608 36.942C89.114 36.942 88.7023 37.0547 88.373 37.28C88.0436 37.5053 87.7966 37.813 87.632 38.203C87.4673 38.593 87.385 39.035 87.385 39.529C87.385 40.0057 87.4673 40.4433 87.632 40.842C87.7966 41.232 88.0436 41.544 88.373 41.778C88.711 42.0033 89.1313 42.116 89.634 42.116C90.024 42.116 90.362 42.0467 90.648 41.908C90.934 41.7693 91.1636 41.583 91.337 41.349C91.5103 41.115 91.6143 40.8507 91.649 40.556H92.845C92.819 41.102 92.6586 41.5743 92.364 41.973C92.078 42.3717 91.6966 42.6837 91.22 42.909C90.752 43.1257 90.2233 43.234 89.634 43.234ZM96.9848 43.078C96.4648 43.078 96.0141 43.0043 95.6328 42.857C95.2601 42.7097 94.9698 42.4583 94.7618 42.103C94.5624 41.739 94.4628 41.2493 94.4628 40.634V33.952H95.6588V40.79C95.6588 41.1627 95.7584 41.453 95.9578 41.661C96.1658 41.8603 96.4561 41.96 96.8288 41.96H98.0508V43.078H96.9848ZM93.2668 36.994V36.058H98.0508V36.994H93.2668ZM101.961 43.208C101.138 43.208 100.505 42.9393 100.063 42.402C99.6209 41.8647 99.3999 41.089 99.3999 40.075V36.045H100.648V40.322C100.648 40.868 100.795 41.297 101.09 41.609C101.385 41.9123 101.783 42.064 102.286 42.064C102.806 42.064 103.231 41.8993 103.56 41.57C103.889 41.232 104.054 40.7727 104.054 40.192V36.045H105.302V43H104.314V40.023H104.47C104.47 40.7077 104.379 41.2883 104.197 41.765C104.015 42.233 103.742 42.5927 103.378 42.844C103.023 43.0867 102.568 43.208 102.013 43.208H101.961ZM107.459 43V36.058H108.447V38.918H108.395C108.395 37.904 108.616 37.163 109.058 36.695C109.509 36.2183 110.18 35.98 111.073 35.98H111.307V37.098H110.865C110.172 37.098 109.639 37.2843 109.266 37.657C108.893 38.021 108.707 38.5497 108.707 39.243V43H107.459ZM115.406 43.234C114.799 43.234 114.275 43.13 113.833 42.922C113.391 42.714 113.031 42.441 112.754 42.103C112.477 41.7563 112.269 41.3707 112.13 40.946C112 40.5213 111.935 40.088 111.935 39.646V39.412C111.935 38.9613 112 38.5237 112.13 38.099C112.269 37.6743 112.477 37.293 112.754 36.955C113.031 36.6083 113.382 36.3353 113.807 36.136C114.24 35.928 114.747 35.824 115.328 35.824C116.082 35.824 116.702 35.9887 117.187 36.318C117.681 36.6387 118.045 37.0547 118.279 37.566C118.522 38.0773 118.643 38.6233 118.643 39.204V39.763H112.481V38.827H117.733L117.447 39.334C117.447 38.84 117.369 38.4153 117.213 38.06C117.057 37.696 116.823 37.4143 116.511 37.215C116.199 37.0157 115.805 36.916 115.328 36.916C114.834 36.916 114.422 37.0287 114.093 37.254C113.772 37.4793 113.53 37.787 113.365 38.177C113.209 38.567 113.131 39.0177 113.131 39.529C113.131 40.023 113.209 40.4693 113.365 40.868C113.53 41.258 113.781 41.57 114.119 41.804C114.457 42.0293 114.886 42.142 115.406 42.142C115.952 42.142 116.394 42.0207 116.732 41.778C117.079 41.5353 117.287 41.2537 117.356 40.933H118.526C118.431 41.4097 118.24 41.8213 117.954 42.168C117.668 42.5147 117.308 42.779 116.875 42.961C116.442 43.143 115.952 43.234 115.406 43.234ZM125.83 43.234C125.232 43.234 124.712 43.13 124.27 42.922C123.837 42.714 123.477 42.4367 123.191 42.09C122.905 41.7347 122.688 41.3447 122.541 40.92C122.402 40.4953 122.333 40.0707 122.333 39.646V39.412C122.333 38.97 122.402 38.5367 122.541 38.112C122.688 37.6873 122.905 37.306 123.191 36.968C123.486 36.6213 123.85 36.344 124.283 36.136C124.716 35.928 125.223 35.824 125.804 35.824C126.385 35.824 126.905 35.9323 127.364 36.149C127.832 36.3657 128.205 36.6733 128.482 37.072C128.768 37.462 128.928 37.9257 128.963 38.463H127.767C127.706 38.0297 127.507 37.67 127.169 37.384C126.831 37.0893 126.376 36.942 125.804 36.942C125.31 36.942 124.898 37.0547 124.569 37.28C124.24 37.5053 123.993 37.813 123.828 38.203C123.663 38.593 123.581 39.035 123.581 39.529C123.581 40.0057 123.663 40.4433 123.828 40.842C123.993 41.232 124.24 41.544 124.569 41.778C124.907 42.0033 125.327 42.116 125.83 42.116C126.22 42.116 126.558 42.0467 126.844 41.908C127.13 41.7693 127.36 41.583 127.533 41.349C127.706 41.115 127.81 40.8507 127.845 40.556H129.041C129.015 41.102 128.855 41.5743 128.56 41.973C128.274 42.3717 127.893 42.6837 127.416 42.909C126.948 43.1257 126.419 43.234 125.83 43.234ZM133.675 43.234C133.068 43.234 132.535 43.13 132.076 42.922C131.616 42.714 131.226 42.441 130.906 42.103C130.594 41.7563 130.355 41.3707 130.191 40.946C130.035 40.5213 129.957 40.088 129.957 39.646V39.412C129.957 38.97 130.039 38.5367 130.204 38.112C130.368 37.6787 130.611 37.293 130.932 36.955C131.252 36.6083 131.642 36.3353 132.102 36.136C132.561 35.928 133.085 35.824 133.675 35.824C134.264 35.824 134.788 35.928 135.248 36.136C135.707 36.3353 136.097 36.6083 136.418 36.955C136.738 37.293 136.981 37.6787 137.146 38.112C137.31 38.5367 137.393 38.97 137.393 39.412V39.646C137.393 40.088 137.31 40.5213 137.146 40.946C136.99 41.3707 136.751 41.7563 136.431 42.103C136.119 42.441 135.733 42.714 135.274 42.922C134.814 43.13 134.281 43.234 133.675 43.234ZM133.675 42.116C134.195 42.116 134.637 42.0033 135.001 41.778C135.373 41.544 135.655 41.232 135.846 40.842C136.045 40.452 136.145 40.0143 136.145 39.529C136.145 39.035 136.045 38.593 135.846 38.203C135.646 37.813 135.36 37.5053 134.988 37.28C134.624 37.0547 134.186 36.942 133.675 36.942C133.172 36.942 132.734 37.0547 132.362 37.28C131.989 37.5053 131.703 37.813 131.504 38.203C131.304 38.593 131.205 39.035 131.205 39.529C131.205 40.0143 131.3 40.452 131.491 40.842C131.69 41.232 131.972 41.544 132.336 41.778C132.708 42.0033 133.155 42.116 133.675 42.116ZM139.002 43V36.058H139.99V39.035H139.834C139.834 38.359 139.92 37.787 140.094 37.319C140.276 36.8423 140.544 36.4783 140.9 36.227C141.255 35.9757 141.706 35.85 142.252 35.85H142.304C142.85 35.85 143.3 35.9757 143.656 36.227C144.02 36.4783 144.288 36.8423 144.462 37.319C144.635 37.787 144.722 38.359 144.722 39.035H144.358C144.358 38.359 144.449 37.787 144.631 37.319C144.813 36.8423 145.081 36.4783 145.437 36.227C145.801 35.9757 146.256 35.85 146.802 35.85H146.854C147.4 35.85 147.855 35.9757 148.219 36.227C148.583 36.4783 148.851 36.8423 149.025 37.319C149.207 37.787 149.298 38.359 149.298 39.035V43H148.05V38.762C148.05 38.1987 147.911 37.7653 147.634 37.462C147.356 37.15 146.971 36.994 146.477 36.994C145.965 36.994 145.554 37.1587 145.242 37.488C144.93 37.8087 144.774 38.2593 144.774 38.84V43H143.526V38.762C143.526 38.1987 143.387 37.7653 143.11 37.462C142.832 37.15 142.447 36.994 141.953 36.994C141.441 36.994 141.03 37.1587 140.718 37.488C140.406 37.8087 140.25 38.2593 140.25 38.84V43H139.002ZM151.323 45.6V36.058H152.311V39.061L152.077 39.035C152.12 38.2897 152.276 37.683 152.545 37.215C152.822 36.7383 153.182 36.3873 153.624 36.162C154.066 35.9367 154.547 35.824 155.067 35.824C155.57 35.824 156.025 35.9193 156.432 36.11C156.848 36.3007 157.203 36.5607 157.498 36.89C157.793 37.2193 158.018 37.6007 158.174 38.034C158.33 38.4673 158.408 38.9267 158.408 39.412V39.646C158.408 40.1313 158.326 40.5907 158.161 41.024C157.996 41.4573 157.762 41.8387 157.459 42.168C157.164 42.4973 156.809 42.7573 156.393 42.948C155.986 43.1387 155.535 43.234 155.041 43.234C154.547 43.234 154.075 43.1257 153.624 42.909C153.173 42.6923 152.801 42.3413 152.506 41.856C152.211 41.3707 152.042 40.7337 151.999 39.945L152.571 40.985V45.6H151.323ZM154.846 42.142C155.314 42.142 155.721 42.0337 156.068 41.817C156.415 41.5917 156.683 41.284 156.874 40.894C157.065 40.4953 157.16 40.0403 157.16 39.529C157.16 39.009 157.065 38.554 156.874 38.164C156.683 37.774 156.415 37.4707 156.068 37.254C155.721 37.0287 155.314 36.916 154.846 36.916C154.43 36.916 154.044 37.0113 153.689 37.202C153.334 37.384 153.048 37.6527 152.831 38.008C152.623 38.3547 152.519 38.775 152.519 39.269V39.867C152.519 40.3437 152.627 40.751 152.844 41.089C153.061 41.427 153.347 41.687 153.702 41.869C154.057 42.051 154.439 42.142 154.846 42.142ZM164.225 43V40.92H164.017V38.515C164.017 38.0383 163.891 37.6787 163.64 37.436C163.397 37.1933 163.037 37.072 162.561 37.072C162.292 37.072 162.015 37.0763 161.729 37.085C161.443 37.0937 161.17 37.1023 160.91 37.111C160.65 37.1197 160.424 37.1327 160.234 37.15V36.058C160.424 36.0407 160.624 36.0277 160.832 36.019C161.048 36.0017 161.269 35.993 161.495 35.993C161.72 35.9843 161.937 35.98 162.145 35.98C162.855 35.98 163.436 36.0667 163.887 36.24C164.337 36.4047 164.671 36.6777 164.888 37.059C165.104 37.4403 165.213 37.956 165.213 38.606V43H164.225ZM161.95 43.182C161.43 43.182 160.979 43.0953 160.598 42.922C160.225 42.74 159.935 42.48 159.727 42.142C159.527 41.804 159.428 41.3967 159.428 40.92C159.428 40.426 159.536 40.0143 159.753 39.685C159.978 39.3557 160.303 39.1087 160.728 38.944C161.152 38.7707 161.664 38.684 162.262 38.684H164.147V39.62H162.21C161.707 39.62 161.321 39.7413 161.053 39.984C160.784 40.2267 160.65 40.5387 160.65 40.92C160.65 41.3013 160.784 41.609 161.053 41.843C161.321 42.077 161.707 42.194 162.21 42.194C162.504 42.194 162.786 42.142 163.055 42.038C163.323 41.9253 163.544 41.7433 163.718 41.492C163.9 41.232 163.999 40.8767 164.017 40.426L164.355 40.92C164.311 41.414 164.19 41.83 163.991 42.168C163.8 42.4973 163.531 42.7487 163.185 42.922C162.847 43.0953 162.435 43.182 161.95 43.182ZM167.243 43V36.058H168.231V39.035H168.075C168.075 38.3503 168.166 37.774 168.348 37.306C168.539 36.8293 168.825 36.4697 169.206 36.227C169.588 35.9757 170.069 35.85 170.649 35.85H170.701C171.577 35.85 172.222 36.123 172.638 36.669C173.063 37.215 173.275 38.0037 173.275 39.035V43H172.027V38.775C172.027 38.2377 171.876 37.8087 171.572 37.488C171.269 37.1587 170.853 36.994 170.324 36.994C169.778 36.994 169.336 37.163 168.998 37.501C168.66 37.839 168.491 38.2897 168.491 38.853V43H167.243ZM174.78 45.704V44.586H175.781C176.076 44.586 176.323 44.547 176.522 44.469C176.73 44.3997 176.899 44.2783 177.029 44.105C177.168 43.9317 177.28 43.702 177.367 43.416L179.551 36.058H180.773L178.459 43.741C178.32 44.2003 178.125 44.573 177.874 44.859C177.623 45.1537 177.315 45.366 176.951 45.496C176.596 45.6347 176.18 45.704 175.703 45.704H174.78ZM176.899 42.844V41.804H178.407V42.844H176.899ZM176.769 42.844L174.286 36.058H175.56L177.939 42.844H176.769Z" fill="black"></path>
</svg>