<svg xmlns="http://www.w3.org/2000/svg" width="156" height="20" viewBox="0 0 156 20" fill="none">
                    <path d="M25.7056 19.814H28.0572V5.47753H25.7056V19.814Z" fill="#0B0B0B"></path>
                    <path d="M39.0339 16.6373C38.9101 12.5323 32.4948 13.8113 32.4948 11.5216C32.4948 10.7583 33.1549 10.2426 34.4132 10.2426C35.6921 10.2426 36.4554 10.9233 36.5379 11.9135H38.8895C38.7657 9.6444 37.0742 8.26232 34.4957 8.26232C31.8141 8.26232 30.1226 9.72691 30.1226 11.5422C30.1226 15.7091 36.7235 14.4301 36.7235 16.6579C36.7235 17.4418 36.0016 18.0194 34.6401 18.0194C33.3405 18.0194 32.4535 17.2562 32.371 16.3279H29.9369C30.04 18.3907 31.9585 19.9997 34.6814 19.9997C37.363 19.9997 39.0339 18.5557 39.0339 16.6373Z" fill="#0B0B0B"></path>
                    <path d="M40.986 19.814H43.3376V4.54926H40.986V19.814Z" fill="#0B0B0B"></path>
                    <path d="M45.0523 14.0794C45.0523 17.5862 47.4245 19.9997 50.3743 19.9997C52.2721 19.9997 53.6336 19.0921 54.3556 18.1225V19.814H56.7278V8.44797H54.3556V10.0982C53.6542 9.16995 52.334 8.26232 50.4156 8.26232C47.4245 8.26232 45.0523 10.5727 45.0523 14.0794ZM54.3556 14.1207C54.3556 16.5754 52.6847 17.9575 50.9107 17.9575C49.1573 17.9575 47.4658 16.5342 47.4658 14.0794C47.4658 11.6247 49.1573 10.3045 50.9107 10.3045C52.6847 10.3045 54.3556 11.6866 54.3556 14.1207Z" fill="#0B0B0B"></path>
                    <path d="M75.3382 19.814H77.6692V13.1099C77.6692 9.93319 75.6476 8.26232 72.9866 8.26232C71.3364 8.26232 69.7274 9.1287 69.026 10.5108C68.2421 9.02556 66.7363 8.26232 64.9417 8.26232C63.5802 8.26232 62.3425 8.81928 61.5793 9.74754V8.44797H59.2277V19.814H61.5793V13.4606C61.5793 11.3772 62.7138 10.3045 64.4466 10.3045C66.1587 10.3045 67.2933 11.3772 67.2933 13.4606V19.814H69.6242V13.4606C69.6242 11.3772 70.7588 10.3045 72.4915 10.3045C74.2037 10.3045 75.3382 11.3772 75.3382 13.4606V19.814Z" fill="#0B0B0B"></path>
                    <path d="M80.0727 19.814H82.4243V8.44797H80.0727V19.814ZM81.2691 6.94212C82.0942 6.94212 82.7543 6.28202 82.7543 5.43627C82.7543 4.59052 82.0942 3.93042 81.2691 3.93042C80.4234 3.93042 79.7633 4.59052 79.7633 5.43627C79.7633 6.28202 80.4234 6.94212 81.2691 6.94212Z" fill="#0B0B0B"></path>
                    <path d="M84.139 14.1207C84.139 17.6894 86.4493 19.9997 89.7086 19.9997C92.4934 19.9997 94.3086 18.4526 94.9481 16.2248H92.4109C91.9777 17.4006 91.1113 18.0194 89.7086 18.0194C87.8108 18.0194 86.5525 16.6167 86.5525 14.1207C86.5525 11.6453 87.8108 10.2426 89.7086 10.2426C91.1113 10.2426 92.0189 10.944 92.4109 12.0373H94.9481C94.3086 9.6444 92.4934 8.26232 89.7086 8.26232C86.4493 8.26232 84.139 10.5727 84.139 14.1207Z" fill="#0B0B0B"></path>
                    <path d="M96.7028 19.814H99.0544V13.5431H103.799V11.6247H99.0544V7.39594H105.14V5.47753H96.7028V19.814Z" fill="#0B0B0B"></path>
                    <path d="M106.73 19.814H109.082V8.44797H106.73V19.814ZM107.927 6.94212C108.752 6.94212 109.412 6.28202 109.412 5.43627C109.412 4.59052 108.752 3.93042 107.927 3.93042C107.081 3.93042 106.421 4.59052 106.421 5.43627C106.421 6.28202 107.081 6.94212 107.927 6.94212Z" fill="#0B0B0B"></path>
                    <path d="M119.646 19.814H121.977V13.1099C121.977 9.93319 119.976 8.26232 117.315 8.26232C115.953 8.26232 114.695 8.81928 113.932 9.74754V8.44797H111.58V19.814H113.932V13.4606C113.932 11.3772 115.066 10.3045 116.799 10.3045C118.511 10.3045 119.646 11.3772 119.646 13.4606V19.814Z" fill="#0B0B0B"></path>
                    <path d="M123.604 14.0794C123.604 17.5862 125.976 19.9997 128.967 19.9997C130.824 19.9997 132.185 19.1333 132.907 18.1019V19.814H135.279V4.54926H132.907V10.0363C132.041 8.96367 130.473 8.26232 128.988 8.26232C125.976 8.26232 123.604 10.5727 123.604 14.0794ZM132.907 14.1207C132.907 16.5754 131.236 17.9575 129.462 17.9575C127.709 17.9575 126.017 16.5342 126.017 14.0794C126.017 11.6247 127.709 10.3045 129.462 10.3045C131.236 10.3045 132.907 11.6866 132.907 14.1207Z" fill="#0B0B0B"></path>
                    <path d="M142.565 10.2426C144.318 10.2426 145.7 11.3565 145.742 13.1099H139.45C139.698 11.3153 140.976 10.2426 142.565 10.2426ZM147.887 16.431H145.35C144.916 17.318 144.112 18.0194 142.668 18.0194C140.935 18.0194 139.594 16.8849 139.429 15.0077H148.114C148.176 14.6158 148.196 14.2445 148.196 13.8525C148.196 10.5108 145.907 8.26232 142.668 8.26232C139.306 8.26232 136.995 10.552 136.995 14.1207C136.995 17.6894 139.409 19.9997 142.668 19.9997C145.453 19.9997 147.247 18.4113 147.887 16.431Z" fill="#0B0B0B"></path>
                    <path d="M152.273 13.8319C152.273 11.4184 153.346 10.6964 155.079 10.6964H155.677V8.26232C154.068 8.26232 152.933 8.96367 152.273 10.0982V8.44797H149.922V19.814H152.273V13.8319Z" fill="#0B0B0B"></path>
                    <path d="M17.8795 15.245V15.2114C17.9269 12.7728 17.1567 10.6895 15.8624 9.32701C14.343 7.7286 12.6893 6.55843 11.2236 5.08725C10.677 4.54322 10.2124 3.92078 9.84477 3.23989C9.31119 2.25103 9.01003 1.15096 8.96465 0.0251558V0C8.88866 1.09874 8.5885 2.16962 8.08312 3.14505C7.71856 3.8632 7.24489 4.51897 6.67939 5.08841C5.21168 6.5512 3.54544 7.72976 2.02603 9.32816C0.730283 10.6906 -0.0395652 12.7719 0.00156951 15.2126V18.0208C0.00382793 18.5414 0.209269 19.0399 0.573122 19.4079C0.936975 19.7758 1.42974 19.9832 1.94404 19.985H2.2517C2.76657 19.9827 3.25968 19.7745 3.62354 19.4057C3.9874 19.037 4.19252 18.5376 4.19417 18.0164V15.1915C4.18742 15.0205 4.21487 14.8499 4.27486 14.6899C4.33484 14.53 4.42614 14.3839 4.54327 14.2605C4.66039 14.1371 4.80094 14.0389 4.95647 13.9719C5.11199 13.9048 5.2793 13.8703 5.44835 13.8703C5.6174 13.8703 5.78471 13.9048 5.94024 13.9719C6.09576 14.0389 6.23631 14.1371 6.35343 14.2605C6.47056 14.3839 6.56186 14.53 6.62184 14.6899C6.68183 14.8499 6.70928 15.0205 6.70253 15.1915V18.0164C6.70404 18.5386 6.90984 19.039 7.2749 19.4079C7.63996 19.7769 8.13454 19.9845 8.65043 19.9852H9.19318C9.70882 19.9842 10.2031 19.7765 10.5679 19.4076C10.9327 19.0387 11.1384 18.5387 11.1399 18.0167V17.9919H11.1668V15.1918C11.16 15.0208 11.1875 14.8502 11.2475 14.6902C11.3075 14.5302 11.3988 14.3842 11.5159 14.2608C11.633 14.1374 11.7736 14.0392 11.9291 13.9722C12.0846 13.9051 12.2519 13.8706 12.421 13.8706C12.59 13.8706 12.7573 13.9051 12.9129 13.9722C13.0684 14.0392 13.2089 14.1374 13.3261 14.2608C13.4432 14.3842 13.5345 14.5302 13.5945 14.6902C13.6545 14.8502 13.6819 15.0208 13.6752 15.1918V18.0167C13.6768 18.5379 13.8819 19.0373 14.2458 19.406C14.6096 19.7748 15.1028 19.983 15.6176 19.9852H15.9253C16.4394 19.983 16.9319 19.7755 17.2957 19.4076C17.6595 19.0398 17.865 18.5415 17.8678 18.0211C17.8678 18.0211 17.8815 17.952 17.8795 15.245Z" fill="#2CBF92"></path>
                </svg>