<svg width="1124" height="1915" viewBox="0 0 1124 1915" fill="none" xmlns="http://www.w3.org/2000/svg">
<path d="M522.5 1896C523.5 1897 17 1828.5 1.5 1709.5C-14 1590.5 397.5 1608 400 1561.5C402.5 1515 133.5 1330.5 153.5 1254C173.5 1177.5 451.5 1099.5 451.5 1099.5C451.5 1099.5 692.5 1042.5 804 1000C915.5 957.5 954 891.5 1051 780C1148 668.5 1140 596 1072 570.5C1004 545 953 610.5 878.5 517.5C804 424.5 244 384 310 207.5C310 207.5 337.5 140.5 397 134.5C456.5 128.5 451.5 81 451.5 81" stroke="black"/>
<path d="M436.641 1909.46C436.534 1909.21 436.39 1908.88 436.209 1908.49C436.038 1908.09 435.852 1907.67 435.649 1907.21C435.446 1906.75 435.228 1906.28 434.993 1905.8C434.769 1905.31 434.556 1904.85 434.353 1904.42C434.15 1903.99 433.958 1903.6 433.777 1903.26C433.606 1902.91 433.468 1902.65 433.361 1902.47C433.244 1903.73 433.148 1905.1 433.073 1906.57C432.998 1908.03 432.934 1909.51 432.881 1911H431.361C431.404 1910.04 431.452 1909.07 431.505 1908.1C431.558 1907.12 431.617 1906.16 431.681 1905.22C431.756 1904.27 431.83 1903.35 431.905 1902.46C431.99 1901.56 432.081 1900.71 432.177 1899.91H433.537C433.825 1900.38 434.134 1900.94 434.465 1901.58C434.796 1902.22 435.126 1902.89 435.457 1903.59C435.788 1904.29 436.108 1904.98 436.417 1905.69C436.726 1906.38 437.009 1907.02 437.265 1907.59C437.521 1907.02 437.804 1906.38 438.113 1905.69C438.422 1904.98 438.742 1904.29 439.073 1903.59C439.404 1902.89 439.734 1902.22 440.065 1901.58C440.396 1900.94 440.705 1900.38 440.993 1899.91H442.353C442.716 1903.49 442.988 1907.18 443.169 1911H441.649C441.596 1909.51 441.532 1908.03 441.457 1906.57C441.382 1905.1 441.286 1903.73 441.169 1902.47C441.062 1902.65 440.918 1902.91 440.737 1903.26C440.566 1903.6 440.38 1903.99 440.177 1904.42C439.974 1904.85 439.756 1905.31 439.521 1905.8C439.297 1906.28 439.084 1906.75 438.881 1907.21C438.678 1907.67 438.486 1908.09 438.305 1908.49C438.134 1908.88 437.996 1909.21 437.889 1909.46H436.641ZM448.323 1909.93C448.675 1909.93 448.984 1909.92 449.251 1909.91C449.528 1909.89 449.757 1909.86 449.939 1909.82V1907.34C449.832 1907.28 449.656 1907.24 449.411 1907.21C449.176 1907.17 448.888 1907.14 448.547 1907.14C448.323 1907.14 448.083 1907.16 447.827 1907.19C447.581 1907.22 447.352 1907.29 447.139 1907.4C446.936 1907.5 446.765 1907.63 446.627 1907.82C446.488 1907.99 446.419 1908.22 446.419 1908.5C446.419 1909.04 446.589 1909.41 446.931 1909.62C447.272 1909.83 447.736 1909.93 448.323 1909.93ZM448.195 1902.47C448.792 1902.47 449.293 1902.55 449.699 1902.71C450.115 1902.86 450.445 1903.08 450.691 1903.37C450.947 1903.65 451.128 1903.98 451.235 1904.38C451.341 1904.76 451.395 1905.19 451.395 1905.66V1910.86C451.267 1910.88 451.085 1910.91 450.851 1910.95C450.627 1910.98 450.371 1911.02 450.083 1911.05C449.795 1911.08 449.48 1911.11 449.139 1911.13C448.808 1911.16 448.477 1911.18 448.147 1911.18C447.677 1911.18 447.245 1911.13 446.851 1911.03C446.456 1910.94 446.115 1910.79 445.827 1910.58C445.539 1910.37 445.315 1910.09 445.155 1909.75C444.995 1909.41 444.915 1909 444.915 1908.52C444.915 1908.06 445.005 1907.67 445.187 1907.34C445.379 1907.01 445.635 1906.74 445.955 1906.54C446.275 1906.33 446.648 1906.18 447.075 1906.09C447.501 1905.99 447.949 1905.94 448.419 1905.94C448.568 1905.94 448.723 1905.95 448.883 1905.98C449.043 1905.99 449.192 1906.01 449.331 1906.04C449.48 1906.06 449.608 1906.08 449.715 1906.1C449.821 1906.13 449.896 1906.14 449.939 1906.15V1905.74C449.939 1905.49 449.912 1905.25 449.859 1905.02C449.805 1904.77 449.709 1904.56 449.571 1904.38C449.432 1904.18 449.24 1904.03 448.995 1903.93C448.76 1903.81 448.451 1903.75 448.067 1903.75C447.576 1903.75 447.144 1903.79 446.771 1903.86C446.408 1903.93 446.136 1904 445.955 1904.07L445.779 1902.84C445.971 1902.75 446.291 1902.67 446.739 1902.6C447.187 1902.51 447.672 1902.47 448.195 1902.47ZM459.242 1904.44C459.061 1904.29 458.799 1904.15 458.458 1904.01C458.117 1903.87 457.743 1903.8 457.338 1903.8C456.911 1903.8 456.543 1903.88 456.234 1904.04C455.935 1904.19 455.69 1904.4 455.498 1904.68C455.306 1904.95 455.167 1905.27 455.082 1905.64C454.997 1906.01 454.954 1906.41 454.954 1906.84C454.954 1907.81 455.194 1908.56 455.674 1909.1C456.154 1909.62 456.794 1909.88 457.594 1909.88C457.999 1909.88 458.335 1909.86 458.602 1909.83C458.879 1909.79 459.093 1909.75 459.242 1909.7V1904.44ZM459.242 1898.84L460.73 1898.58V1910.76C460.389 1910.86 459.951 1910.95 459.418 1911.05C458.885 1911.14 458.271 1911.19 457.578 1911.19C456.938 1911.19 456.362 1911.09 455.85 1910.89C455.338 1910.69 454.901 1910.4 454.538 1910.02C454.175 1909.65 453.893 1909.2 453.69 1908.66C453.498 1908.12 453.402 1907.51 453.402 1906.84C453.402 1906.2 453.482 1905.61 453.642 1905.08C453.813 1904.55 454.058 1904.09 454.378 1903.7C454.698 1903.32 455.087 1903.02 455.546 1902.81C456.015 1902.59 456.549 1902.49 457.146 1902.49C457.626 1902.49 458.047 1902.55 458.41 1902.68C458.783 1902.81 459.061 1902.93 459.242 1903.05V1898.84ZM462.824 1906.86C462.824 1906.12 462.93 1905.48 463.144 1904.94C463.357 1904.38 463.64 1903.92 463.992 1903.56C464.344 1903.2 464.749 1902.93 465.208 1902.74C465.666 1902.56 466.136 1902.47 466.616 1902.47C467.736 1902.47 468.594 1902.82 469.192 1903.53C469.789 1904.22 470.088 1905.28 470.088 1906.71C470.088 1906.78 470.088 1906.86 470.088 1906.97C470.088 1907.06 470.082 1907.15 470.072 1907.24H464.376C464.44 1908.1 464.69 1908.76 465.128 1909.21C465.565 1909.66 466.248 1909.88 467.176 1909.88C467.698 1909.88 468.136 1909.84 468.488 1909.75C468.85 1909.66 469.122 1909.57 469.304 1909.48L469.512 1910.73C469.33 1910.82 469.01 1910.93 468.552 1911.03C468.104 1911.14 467.592 1911.19 467.016 1911.19C466.29 1911.19 465.661 1911.09 465.128 1910.87C464.605 1910.65 464.173 1910.34 463.832 1909.96C463.49 1909.58 463.234 1909.12 463.064 1908.6C462.904 1908.07 462.824 1907.49 462.824 1906.86ZM468.536 1906.04C468.546 1905.37 468.376 1904.82 468.024 1904.39C467.682 1903.95 467.208 1903.74 466.6 1903.74C466.258 1903.74 465.954 1903.81 465.688 1903.94C465.432 1904.07 465.213 1904.24 465.032 1904.46C464.85 1904.67 464.706 1904.91 464.6 1905.19C464.504 1905.47 464.44 1905.75 464.408 1906.04H468.536ZM482.728 1911C482.43 1910.23 482.11 1909.36 481.768 1908.38C481.438 1907.38 481.134 1906.35 480.856 1905.29C480.579 1906.35 480.275 1907.38 479.944 1908.38C479.614 1909.36 479.299 1910.23 479 1911H477.704C477.214 1909.9 476.734 1908.65 476.264 1907.24C475.795 1905.83 475.352 1904.31 474.936 1902.68H476.536C476.643 1903.18 476.771 1903.73 476.92 1904.31C477.07 1904.9 477.224 1905.49 477.384 1906.07C477.555 1906.66 477.731 1907.22 477.912 1907.77C478.094 1908.31 478.264 1908.79 478.424 1909.19C478.606 1908.69 478.782 1908.16 478.952 1907.61C479.134 1907.04 479.304 1906.48 479.464 1905.91C479.624 1905.34 479.774 1904.78 479.912 1904.23C480.062 1903.68 480.19 1903.16 480.296 1902.68H481.528C481.624 1903.16 481.742 1903.68 481.88 1904.23C482.019 1904.78 482.168 1905.34 482.328 1905.91C482.488 1906.48 482.654 1907.04 482.824 1907.61C483.006 1908.16 483.187 1908.69 483.368 1909.19C483.528 1908.79 483.694 1908.31 483.864 1907.77C484.046 1907.22 484.222 1906.66 484.392 1906.07C484.563 1905.49 484.723 1904.9 484.872 1904.31C485.022 1903.73 485.15 1903.18 485.256 1902.68H486.792C486.376 1904.31 485.934 1905.83 485.464 1907.24C484.995 1908.65 484.515 1909.9 484.024 1911H482.728ZM489.854 1911H488.366V1902.68H489.854V1911ZM489.102 1901.18C488.835 1901.18 488.606 1901.09 488.414 1900.92C488.233 1900.74 488.142 1900.5 488.142 1900.2C488.142 1899.9 488.233 1899.67 488.414 1899.5C488.606 1899.31 488.835 1899.22 489.102 1899.22C489.369 1899.22 489.593 1899.31 489.774 1899.5C489.966 1899.67 490.062 1899.9 490.062 1900.2C490.062 1900.5 489.966 1900.74 489.774 1900.92C489.593 1901.09 489.369 1901.18 489.102 1901.18ZM493.805 1902.68H496.957V1903.93H493.805V1907.77C493.805 1908.18 493.837 1908.53 493.901 1908.81C493.965 1909.07 494.061 1909.29 494.189 1909.45C494.317 1909.6 494.477 1909.7 494.669 1909.77C494.861 1909.83 495.085 1909.86 495.341 1909.86C495.789 1909.86 496.146 1909.82 496.413 1909.72C496.69 1909.61 496.882 1909.54 496.989 1909.5L497.277 1910.73C497.127 1910.8 496.866 1910.89 496.493 1911C496.119 1911.12 495.693 1911.18 495.213 1911.18C494.647 1911.18 494.178 1911.11 493.805 1910.97C493.442 1910.82 493.149 1910.6 492.925 1910.31C492.701 1910.02 492.541 1909.67 492.445 1909.26C492.359 1908.83 492.317 1908.34 492.317 1907.78V1900.36L493.805 1900.1V1902.68ZM498.85 1911V1898.84L500.338 1898.58V1902.84C500.616 1902.73 500.909 1902.65 501.218 1902.6C501.538 1902.54 501.853 1902.5 502.162 1902.5C502.824 1902.5 503.373 1902.6 503.81 1902.79C504.248 1902.97 504.594 1903.23 504.85 1903.58C505.117 1903.91 505.304 1904.31 505.41 1904.78C505.517 1905.25 505.57 1905.76 505.57 1906.33V1911H504.082V1906.65C504.082 1906.14 504.045 1905.7 503.97 1905.34C503.906 1904.97 503.794 1904.68 503.634 1904.46C503.474 1904.23 503.261 1904.07 502.994 1903.98C502.728 1903.87 502.397 1903.82 502.002 1903.82C501.842 1903.82 501.677 1903.83 501.506 1903.85C501.336 1903.87 501.17 1903.9 501.01 1903.93C500.861 1903.95 500.722 1903.98 500.594 1904.01C500.477 1904.04 500.392 1904.07 500.338 1904.09V1911H498.85Z" fill="#61646B"/>
<path fill-rule="evenodd" clip-rule="evenodd" d="M515.824 1904.12C517.226 1908.48 522.765 1912.01 524.237 1912.88C525.714 1912 531.293 1908.44 532.65 1904.13C533.541 1901.34 532.714 1897.81 529.428 1896.75C527.836 1896.24 525.979 1896.55 524.697 1897.54C524.429 1897.75 524.057 1897.75 523.787 1897.55C522.429 1896.53 520.655 1896.23 519.038 1896.75C515.757 1897.81 514.933 1901.34 515.824 1904.12M524.238 1914.5C524.114 1914.5 523.991 1914.47 523.879 1914.41C523.566 1914.24 516.193 1910.17 514.396 1904.58C514.395 1904.58 514.395 1904.58 514.395 1904.58C513.267 1901.06 514.523 1896.63 518.578 1895.32C520.482 1894.71 522.557 1894.98 524.235 1896.04C525.861 1895.01 528.021 1894.73 529.887 1895.32C533.946 1896.63 535.206 1901.06 534.079 1904.58C532.34 1910.11 524.913 1914.23 524.598 1914.41C524.486 1914.47 524.362 1914.5 524.238 1914.5" fill="black"/>
<path fill-rule="evenodd" clip-rule="evenodd" d="M530.154 1902.62C529.767 1902.62 529.439 1902.33 529.407 1901.94C529.341 1901.11 528.791 1900.42 528.008 1900.17C527.613 1900.04 527.397 1899.62 527.524 1899.22C527.653 1898.83 528.072 1898.61 528.468 1898.74C529.831 1899.18 530.786 1900.39 530.903 1901.81C530.936 1902.23 530.629 1902.59 530.216 1902.62C530.195 1902.62 530.175 1902.62 530.154 1902.62" fill="black"/>
<path fill-rule="evenodd" clip-rule="evenodd" d="M451 60.5C446.313 60.5 442.5 64.313 442.5 69C442.5 73.687 446.313 77.5 451 77.5C455.687 77.5 459.5 73.687 459.5 69C459.5 64.313 455.687 60.5 451 60.5M451 79C445.486 79 441 74.514 441 69C441 63.486 445.486 59 451 59C456.514 59 461 63.486 461 69C461 74.514 456.514 79 451 79" fill="black"/>
<path fill-rule="evenodd" clip-rule="evenodd" d="M451 71.7939V71.7939C450.801 71.7939 450.609 71.7149 450.469 71.5729L446.998 68.0869C446.705 67.7929 446.707 67.3179 447 67.0259C447.294 66.7339 447.769 66.7339 448.061 67.0279L451 69.9819L453.94 67.0279C454.232 66.7339 454.707 66.7339 455.001 67.0259C455.294 67.3179 455.295 67.7929 455.003 68.0869L451.531 71.5729C451.391 71.7149 451.199 71.7939 451 71.7939" fill="black"/>
<line x1="451.5" y1="2.18557e-08" x2="451.5" y2="57" stroke="black"/>
</svg>
