<svg width="24" height="25" viewBox="0 0 24 25" fill="none" xmlns="http://www.w3.org/2000/svg">
<path fill-rule="evenodd" clip-rule="evenodd" d="M20 3.19275H4C2.34806 3.19275 1.01 4.5401 1.01 6.19275L1 18.1919C1 19.845 2.34772 21.1927 4 21.1927H20C21.6523 21.1927 23 19.845 23 18.1927V6.19275C23 4.54046 21.6523 3.19275 20 3.19275ZM5.48406 9.1929C5.01101 8.90787 4.85859 8.29333 5.14361 7.82028C5.42864 7.34722 6.04318 7.1948 6.51623 7.47982L11.9707 10.7663L17.6632 7.33636C18.1363 7.05134 18.7517 7.20514 19.0367 7.67819C19.3211 8.15017 19.1709 8.76463 18.6998 9.05052L12.01 13.1108L12.0037 13.1211L5.48406 9.1929Z" fill="#979797"/>
<mask id="mask0_417_1384" style="mask-type:luminance" maskUnits="userSpaceOnUse" x="1" y="3" width="22" height="19">
<path fill-rule="evenodd" clip-rule="evenodd" d="M20 3.19275H4C2.34806 3.19275 1.01 4.5401 1.01 6.19275L1 18.1919C1 19.845 2.34772 21.1927 4 21.1927H20C21.6523 21.1927 23 19.845 23 18.1927V6.19275C23 4.54046 21.6523 3.19275 20 3.19275ZM5.48406 9.1929C5.01101 8.90787 4.85859 8.29333 5.14361 7.82028C5.42864 7.34722 6.04318 7.1948 6.51623 7.47982L11.9707 10.7663L17.6632 7.33636C18.1363 7.05134 18.7517 7.20514 19.0367 7.67819C19.3211 8.15017 19.1709 8.76463 18.6998 9.05052L12.01 13.1108L12.0037 13.1211L5.48406 9.1929Z" fill="white"/>
</mask>
<g mask="url(#mask0_417_1384)">
<rect y="0.192749" width="24" height="24" fill="#424B5A"/>
</g>
</svg>
