<svg width="18" height="19" viewBox="0 0 18 19" fill="none" xmlns="http://www.w3.org/2000/svg">
<path fill-rule="evenodd" clip-rule="evenodd" d="M3.62 7.97066C5.06 10.8007 7.38 13.1107 10.21 14.5607L12.41 12.3607C12.68 12.0907 13.08 12.0007 13.43 12.1207C14.55 12.4907 15.76 12.6907 17 12.6907C17.55 12.6907 18 13.1407 18 13.6907V17.1807C18 17.7307 17.55 18.1807 17 18.1807C7.61 18.1807 0 10.5707 0 1.18066C0 0.630664 0.45 0.180664 1 0.180664H4.5C5.05 0.180664 5.5 0.630664 5.5 1.18066C5.5 2.43066 5.7 3.63066 6.07 4.75066C6.18 5.10066 6.1 5.49066 5.82 5.77066L3.62 7.97066Z" fill="#424B5A"/>
</svg>
