<svg width="179" height="20" viewBox="0 0 179 20" fill="none" xmlns="http://www.w3.org/2000/svg">
<path d="M22.182 0.00743136L14.5372 0.00743038C12.7107 0.00743015 11.5686 1.96402 12.4807 3.53051L15.4563 8.64115C15.9096 9.41979 16.7484 9.8996 17.6563 9.8996H21.6568L18.6249 4.68852H22.182C26.4058 4.81584 27.7225 7.98907 27.7225 9.8996C27.7225 13.7213 24.5702 15.3115 22.0142 15.3115H17.8555C14.9464 15.3115 13.422 13.6748 12.7198 12.4792L6.17402 1.23839C5.7305 0.476749 4.90997 0.00742986 4.02187 0.00742986H0L7.9843 13.7635C11.0997 19.1447 14.9997 19.8782 17.6347 20H22.3294C28.7238 19.7509 32.2688 14.9481 32.459 10.4753C32.459 2.43202 25.5275 -0.158641 22.182 0.00743136Z" fill="#EE2737"/>
<path fill-rule="evenodd" clip-rule="evenodd" d="M85.3955 18.792V9.05439H83.8396C83.5642 9.05439 83.3408 8.83291 83.3408 8.55975V6.44096C83.3408 6.1678 83.5642 5.94632 83.8396 5.94632H85.6114V1.47987C85.6114 1.25101 85.7752 1.05168 85.9985 1L88.4627 1.01477C88.7977 0.985235 89.0731 1.17718 89.0731 1.49463V5.94632H90.8449C91.1204 5.94632 91.3437 6.1678 91.3437 6.44096V8.55975C91.3437 8.83291 91.1204 9.05439 90.8449 9.05439H89.0731V18.7846C89.0731 19.0578 88.8498 19.2792 88.5743 19.2792H85.8943C85.6189 19.2792 85.3955 19.0578 85.3955 18.792ZM44.0558 1.08128H40.8324C40.4825 1.08128 40.2442 1.42088 40.3559 1.74571L46.788 18.9619C46.8624 19.1612 47.0486 19.2867 47.257 19.2867H50.8602C51.0686 19.2867 51.2547 19.1538 51.3292 18.9619L57.7613 1.74571C57.8804 1.42088 57.6421 1.08128 57.2922 1.08128H54.0762C53.8678 1.08128 53.6742 1.22155 53.6072 1.42088L49.0809 14.8719L44.5249 1.42088C44.4579 1.21416 44.2717 1.08128 44.0558 1.08128ZM63.2625 16.2821C61.3716 16.2821 60.0241 15.2929 59.6966 13.7647H68.4141C68.6598 13.7647 68.8608 13.5949 68.9054 13.3586C68.9799 12.9452 69.0395 12.4358 69.0395 12.0224C69.0395 8.57472 66.6349 5.68075 62.7488 5.68075C58.8628 5.68075 56.0264 8.7076 56.0264 12.613C56.0264 16.762 58.967 19.5747 62.9647 19.5747C64.7514 19.5747 66.3594 19.213 67.5282 18.6741C67.7069 18.5929 67.826 18.4157 67.826 18.2237V15.8613C67.826 15.4922 67.4389 15.2559 67.1113 15.4184C65.9946 15.9647 64.6248 16.2821 63.2625 16.2821ZM60.3667 11.0107H64.9079C65.2503 11.0107 65.4886 10.6785 65.3769 10.3536C65.0344 9.3496 64.0145 8.70732 62.7192 8.70732C61.4089 8.70732 60.3667 9.38651 59.9126 10.3093C59.7563 10.6342 60.0019 11.0107 60.3667 11.0107ZM77.5039 5.68793C75.9033 5.72484 74.809 6.51478 74.1018 7.63693V6.44095C74.1018 6.1678 73.8784 5.94632 73.603 5.94632H70.9229C70.6475 5.94632 70.4242 6.1678 70.4242 6.44095V18.792C70.4242 19.0652 70.6475 19.2866 70.9229 19.2866H73.603C73.8784 19.2866 74.1018 19.0652 74.1018 18.792V11.5497C74.1836 10.1322 75.0472 9.24633 76.3947 9.24633C77.7942 9.24633 78.6876 10.243 78.6876 11.7121V18.792C78.6876 19.0652 78.9109 19.2866 79.1864 19.2866H81.8887C82.1642 19.2866 82.3875 19.0652 82.3875 18.792V10.5235C82.3875 7.85102 80.1988 5.62149 77.5039 5.68793ZM97.4259 19.5742C99.1233 19.5742 100.285 18.7695 100.962 17.6178H100.97V18.7769C100.97 19.05 101.193 19.2715 101.468 19.2715H104.148C104.424 19.2715 104.647 19.05 104.647 18.7769V6.43319C104.647 6.16004 104.424 5.93856 104.148 5.93856H101.468C101.193 5.93856 100.97 6.16004 100.97 6.43319V13.705C100.888 15.1003 100.024 16.0084 98.6766 16.0084C97.2696 16.0084 96.406 15.0191 96.406 13.5205V6.44057C96.406 6.16742 96.1827 5.94594 95.9072 5.94594H93.2272C92.9518 5.94594 92.7284 6.16742 92.7284 6.44057V14.5688C92.7284 17.4332 94.5896 19.5742 97.4259 19.5742ZM110.245 7.3935C110.893 6.40424 111.92 5.68075 113.432 5.68075C113.595 5.68075 113.819 5.68813 114.027 5.70289C114.288 5.72504 114.481 5.93914 114.481 6.19753V8.93646C114.481 9.26129 114.169 9.49754 113.856 9.40895C113.469 9.29821 113.022 9.23915 112.508 9.23915C111.213 9.23915 110.32 10.1251 110.238 11.5425V18.7848C110.238 19.058 110.015 19.2794 109.739 19.2794H107.059C106.784 19.2794 106.56 19.058 106.56 18.7848V6.44115C106.56 6.168 106.784 5.94652 107.059 5.94652H109.739C110.015 5.94652 110.238 6.168 110.238 6.44115V7.3935H110.245ZM122.216 16.2821C120.325 16.2821 118.978 15.2929 118.65 13.7647H127.368C127.614 13.7647 127.815 13.5949 127.859 13.3586C127.934 12.9452 127.993 12.4358 127.993 12.0224C127.993 8.57472 125.589 5.68075 121.703 5.68075C117.817 5.68075 114.98 8.7076 114.98 12.613C114.98 16.762 117.921 19.5747 121.919 19.5747C123.705 19.5747 125.313 19.213 126.482 18.6741C126.661 18.5929 126.78 18.4157 126.78 18.2237V15.8613C126.78 15.4922 126.393 15.2559 126.065 15.4184C124.948 15.9647 123.579 16.2821 122.216 16.2821ZM119.32 11.0107H123.861C124.204 11.0107 124.442 10.6785 124.33 10.3536C123.988 9.3496 122.968 8.70732 121.673 8.70732C120.362 8.70732 119.32 9.38651 118.866 10.3093C118.71 10.6342 118.963 11.0107 119.32 11.0107ZM129.884 1.07332C129.609 1.07332 129.385 1.2948 129.385 1.56796V18.7841C129.385 19.0573 129.609 19.2787 129.884 19.2787H136.19C141.773 19.2787 145.257 15.5063 145.257 10.176C145.257 4.84582 141.781 1.07332 136.19 1.07332H129.884ZM133.219 4.74325V15.6104H136.159C139.48 15.6104 141.289 13.2849 141.289 10.1768C141.289 7.09829 139.48 4.74325 136.159 4.74325H133.219ZM150.513 3.11887C150.513 1.98934 149.671 1.08128 148.48 1.08128C147.311 1.08128 146.455 1.98195 146.448 3.11887C146.448 4.25579 147.311 5.13431 148.48 5.13431C149.671 5.13431 150.513 4.2484 150.513 3.11887ZM149.82 19.2861H147.14C146.865 19.2861 146.642 19.0647 146.642 18.7915V6.44784C146.642 6.17468 146.865 5.95321 147.14 5.95321H149.82C150.096 5.95321 150.319 6.17468 150.319 6.44784V18.7915C150.319 19.0647 150.096 19.2861 149.82 19.2861ZM158.694 14.7539L155.679 6.27871C155.604 6.07938 155.418 5.95387 155.217 5.95387H152.426C152.083 5.95387 151.845 6.29347 151.964 6.61831L156.662 18.962C156.729 19.1539 156.915 19.2794 157.123 19.2794H160.294C160.495 19.2794 160.682 19.1539 160.756 18.962L165.476 6.61092C165.602 6.29347 165.364 5.94649 165.014 5.94649H162.2C161.992 5.94649 161.798 6.072 161.731 6.27133L158.694 14.7539ZM169.013 13.7647C169.34 15.2929 170.688 16.2821 172.578 16.2821C173.941 16.2821 175.311 15.9647 176.427 15.4184C176.755 15.2559 177.142 15.4922 177.142 15.8613V18.2237C177.142 18.4157 177.023 18.5929 176.844 18.6741C175.675 19.213 174.067 19.5747 172.281 19.5747C168.283 19.5747 165.342 16.762 165.342 12.613C165.342 8.7076 168.179 5.68075 172.065 5.68075C175.951 5.68075 178.355 8.57472 178.355 12.0224C178.355 12.4358 178.296 12.9452 178.221 13.3586C178.177 13.5949 177.976 13.7647 177.73 13.7647H169.013ZM174.231 11.0107H169.69C169.325 11.0107 169.072 10.6342 169.236 10.3093C169.69 9.38651 170.732 8.70732 172.042 8.70732C173.338 8.70732 174.357 9.3496 174.7 10.3536C174.812 10.6785 174.573 11.0107 174.231 11.0107Z" fill="white"/>
</svg>
