<svg width="718" height="1352" viewBox="0 0 718 1352" fill="none" xmlns="http://www.w3.org/2000/svg">
<path d="M257.311 1333C257.311 1333 340.167 1242.6 437.661 1187.72C535.154 1132.84 568.818 1047.61 653.633 903.63C738.447 759.648 731.452 666.028 671.995 633.099C612.537 600.17 567.943 684.752 502.802 564.659C437.661 444.567 -51.9924 392.269 5.71668 164.351C5.71668 164.351 29.7621 77.8333 81.7878 70.0854C133.813 62.3375 129.441 1 129.441 1" stroke="black"/>
<path d="M169.641 1345.46C169.534 1345.21 169.39 1344.88 169.209 1344.49C169.038 1344.09 168.852 1343.67 168.649 1343.21C168.446 1342.75 168.228 1342.28 167.993 1341.8C167.769 1341.31 167.556 1340.85 167.353 1340.42C167.15 1339.99 166.958 1339.6 166.777 1339.26C166.606 1338.91 166.468 1338.65 166.361 1338.47C166.244 1339.73 166.148 1341.1 166.073 1342.57C165.998 1344.03 165.934 1345.51 165.881 1347H164.361C164.404 1346.04 164.452 1345.07 164.505 1344.1C164.558 1343.12 164.617 1342.16 164.681 1341.22C164.756 1340.27 164.83 1339.35 164.905 1338.46C164.99 1337.56 165.081 1336.71 165.177 1335.91H166.537C166.825 1336.38 167.134 1336.94 167.465 1337.58C167.796 1338.22 168.126 1338.89 168.457 1339.59C168.788 1340.29 169.108 1340.98 169.417 1341.69C169.726 1342.38 170.009 1343.02 170.265 1343.59C170.521 1343.02 170.804 1342.38 171.113 1341.69C171.422 1340.98 171.742 1340.29 172.073 1339.59C172.404 1338.89 172.734 1338.22 173.065 1337.58C173.396 1336.94 173.705 1336.38 173.993 1335.91H175.353C175.716 1339.49 175.988 1343.18 176.169 1347H174.649C174.596 1345.51 174.532 1344.03 174.457 1342.57C174.382 1341.1 174.286 1339.73 174.169 1338.47C174.062 1338.65 173.918 1338.91 173.737 1339.26C173.566 1339.6 173.38 1339.99 173.177 1340.42C172.974 1340.85 172.756 1341.31 172.521 1341.8C172.297 1342.28 172.084 1342.75 171.881 1343.21C171.678 1343.67 171.486 1344.09 171.305 1344.49C171.134 1344.88 170.996 1345.21 170.889 1345.46H169.641ZM181.323 1345.93C181.675 1345.93 181.984 1345.92 182.251 1345.91C182.528 1345.89 182.757 1345.86 182.939 1345.82V1343.34C182.832 1343.28 182.656 1343.24 182.411 1343.21C182.176 1343.17 181.888 1343.14 181.547 1343.14C181.323 1343.14 181.083 1343.16 180.827 1343.19C180.581 1343.22 180.352 1343.29 180.139 1343.4C179.936 1343.5 179.765 1343.63 179.627 1343.82C179.488 1343.99 179.419 1344.22 179.419 1344.5C179.419 1345.04 179.589 1345.41 179.931 1345.62C180.272 1345.83 180.736 1345.93 181.323 1345.93ZM181.195 1338.47C181.792 1338.47 182.293 1338.55 182.699 1338.71C183.115 1338.86 183.445 1339.08 183.691 1339.37C183.947 1339.65 184.128 1339.98 184.235 1340.38C184.341 1340.76 184.395 1341.19 184.395 1341.66V1346.86C184.267 1346.88 184.085 1346.91 183.851 1346.95C183.627 1346.98 183.371 1347.02 183.083 1347.05C182.795 1347.08 182.48 1347.11 182.139 1347.13C181.808 1347.16 181.477 1347.18 181.147 1347.18C180.677 1347.18 180.245 1347.13 179.851 1347.03C179.456 1346.94 179.115 1346.79 178.827 1346.58C178.539 1346.37 178.315 1346.09 178.155 1345.75C177.995 1345.41 177.915 1345 177.915 1344.52C177.915 1344.06 178.005 1343.67 178.187 1343.34C178.379 1343.01 178.635 1342.74 178.955 1342.54C179.275 1342.33 179.648 1342.18 180.075 1342.09C180.501 1341.99 180.949 1341.94 181.419 1341.94C181.568 1341.94 181.723 1341.95 181.883 1341.98C182.043 1341.99 182.192 1342.01 182.331 1342.04C182.48 1342.06 182.608 1342.08 182.715 1342.1C182.821 1342.13 182.896 1342.14 182.939 1342.15V1341.74C182.939 1341.49 182.912 1341.25 182.859 1341.02C182.805 1340.77 182.709 1340.56 182.571 1340.38C182.432 1340.18 182.24 1340.03 181.995 1339.93C181.76 1339.81 181.451 1339.75 181.067 1339.75C180.576 1339.75 180.144 1339.79 179.771 1339.86C179.408 1339.93 179.136 1340 178.955 1340.07L178.779 1338.84C178.971 1338.75 179.291 1338.67 179.739 1338.6C180.187 1338.51 180.672 1338.47 181.195 1338.47ZM192.242 1340.44C192.061 1340.29 191.799 1340.15 191.458 1340.01C191.117 1339.87 190.743 1339.8 190.338 1339.8C189.911 1339.8 189.543 1339.88 189.234 1340.04C188.935 1340.19 188.69 1340.4 188.498 1340.68C188.306 1340.95 188.167 1341.27 188.082 1341.64C187.997 1342.01 187.954 1342.41 187.954 1342.84C187.954 1343.81 188.194 1344.56 188.674 1345.1C189.154 1345.62 189.794 1345.88 190.594 1345.88C190.999 1345.88 191.335 1345.86 191.602 1345.83C191.879 1345.79 192.093 1345.75 192.242 1345.7V1340.44ZM192.242 1334.84L193.73 1334.58V1346.76C193.389 1346.86 192.951 1346.95 192.418 1347.05C191.885 1347.14 191.271 1347.19 190.578 1347.19C189.938 1347.19 189.362 1347.09 188.85 1346.89C188.338 1346.69 187.901 1346.4 187.538 1346.02C187.175 1345.65 186.893 1345.2 186.69 1344.66C186.498 1344.12 186.402 1343.51 186.402 1342.84C186.402 1342.2 186.482 1341.61 186.642 1341.08C186.813 1340.55 187.058 1340.09 187.378 1339.7C187.698 1339.32 188.087 1339.02 188.546 1338.81C189.015 1338.59 189.549 1338.49 190.146 1338.49C190.626 1338.49 191.047 1338.55 191.41 1338.68C191.783 1338.81 192.061 1338.93 192.242 1339.05V1334.84ZM195.824 1342.86C195.824 1342.12 195.93 1341.48 196.144 1340.94C196.357 1340.38 196.64 1339.92 196.992 1339.56C197.344 1339.2 197.749 1338.93 198.208 1338.74C198.666 1338.56 199.136 1338.47 199.616 1338.47C200.736 1338.47 201.594 1338.82 202.192 1339.53C202.789 1340.22 203.088 1341.28 203.088 1342.71C203.088 1342.78 203.088 1342.86 203.088 1342.97C203.088 1343.06 203.082 1343.15 203.072 1343.24H197.376C197.44 1344.1 197.69 1344.76 198.128 1345.21C198.565 1345.66 199.248 1345.88 200.176 1345.88C200.698 1345.88 201.136 1345.84 201.488 1345.75C201.85 1345.66 202.122 1345.57 202.304 1345.48L202.512 1346.73C202.33 1346.82 202.01 1346.93 201.552 1347.03C201.104 1347.14 200.592 1347.19 200.016 1347.19C199.29 1347.19 198.661 1347.09 198.128 1346.87C197.605 1346.65 197.173 1346.34 196.832 1345.96C196.49 1345.58 196.234 1345.12 196.064 1344.6C195.904 1344.07 195.824 1343.49 195.824 1342.86ZM201.536 1342.04C201.546 1341.37 201.376 1340.82 201.024 1340.39C200.682 1339.95 200.208 1339.74 199.6 1339.74C199.258 1339.74 198.954 1339.81 198.688 1339.94C198.432 1340.07 198.213 1340.24 198.032 1340.46C197.85 1340.67 197.706 1340.91 197.6 1341.19C197.504 1341.47 197.44 1341.75 197.408 1342.04H201.536ZM215.728 1347C215.43 1346.23 215.11 1345.36 214.768 1344.38C214.438 1343.38 214.134 1342.35 213.856 1341.29C213.579 1342.35 213.275 1343.38 212.944 1344.38C212.614 1345.36 212.299 1346.23 212 1347H210.704C210.214 1345.9 209.734 1344.65 209.264 1343.24C208.795 1341.83 208.352 1340.31 207.936 1338.68H209.536C209.643 1339.18 209.771 1339.73 209.92 1340.31C210.07 1340.9 210.224 1341.49 210.384 1342.07C210.555 1342.66 210.731 1343.22 210.912 1343.77C211.094 1344.31 211.264 1344.79 211.424 1345.19C211.606 1344.69 211.782 1344.16 211.952 1343.61C212.134 1343.04 212.304 1342.48 212.464 1341.91C212.624 1341.34 212.774 1340.78 212.912 1340.23C213.062 1339.68 213.19 1339.16 213.296 1338.68H214.528C214.624 1339.16 214.742 1339.68 214.88 1340.23C215.019 1340.78 215.168 1341.34 215.328 1341.91C215.488 1342.48 215.654 1343.04 215.824 1343.61C216.006 1344.16 216.187 1344.69 216.368 1345.19C216.528 1344.79 216.694 1344.31 216.864 1343.77C217.046 1343.22 217.222 1342.66 217.392 1342.07C217.563 1341.49 217.723 1340.9 217.872 1340.31C218.022 1339.73 218.15 1339.18 218.256 1338.68H219.792C219.376 1340.31 218.934 1341.83 218.464 1343.24C217.995 1344.65 217.515 1345.9 217.024 1347H215.728ZM222.854 1347H221.366V1338.68H222.854V1347ZM222.102 1337.18C221.835 1337.18 221.606 1337.09 221.414 1336.92C221.233 1336.74 221.142 1336.5 221.142 1336.2C221.142 1335.9 221.233 1335.67 221.414 1335.5C221.606 1335.31 221.835 1335.22 222.102 1335.22C222.369 1335.22 222.593 1335.31 222.774 1335.5C222.966 1335.67 223.062 1335.9 223.062 1336.2C223.062 1336.5 222.966 1336.74 222.774 1336.92C222.593 1337.09 222.369 1337.18 222.102 1337.18ZM226.805 1338.68H229.957V1339.93H226.805V1343.77C226.805 1344.18 226.837 1344.53 226.901 1344.81C226.965 1345.07 227.061 1345.29 227.189 1345.45C227.317 1345.6 227.477 1345.7 227.669 1345.77C227.861 1345.83 228.085 1345.86 228.341 1345.86C228.789 1345.86 229.146 1345.82 229.413 1345.72C229.69 1345.61 229.882 1345.54 229.989 1345.5L230.277 1346.73C230.127 1346.8 229.866 1346.89 229.493 1347C229.119 1347.12 228.693 1347.18 228.213 1347.18C227.647 1347.18 227.178 1347.11 226.805 1346.97C226.442 1346.82 226.149 1346.6 225.925 1346.31C225.701 1346.02 225.541 1345.67 225.445 1345.26C225.359 1344.83 225.317 1344.34 225.317 1343.78V1336.36L226.805 1336.1V1338.68ZM231.85 1347V1334.84L233.338 1334.58V1338.84C233.616 1338.73 233.909 1338.65 234.218 1338.6C234.538 1338.54 234.853 1338.5 235.162 1338.5C235.824 1338.5 236.373 1338.6 236.81 1338.79C237.248 1338.97 237.594 1339.23 237.85 1339.58C238.117 1339.91 238.304 1340.31 238.41 1340.78C238.517 1341.25 238.57 1341.76 238.57 1342.33V1347H237.082V1342.65C237.082 1342.14 237.045 1341.7 236.97 1341.34C236.906 1340.97 236.794 1340.68 236.634 1340.46C236.474 1340.23 236.261 1340.07 235.994 1339.98C235.728 1339.87 235.397 1339.82 235.002 1339.82C234.842 1339.82 234.677 1339.83 234.506 1339.85C234.336 1339.87 234.17 1339.9 234.01 1339.93C233.861 1339.95 233.722 1339.98 233.594 1340.01C233.477 1340.04 233.392 1340.07 233.338 1340.09V1347H231.85Z" fill="#61646B"/>
<mask id="mask0_813_1712" style="mask-type:luminance" maskUnits="userSpaceOnUse" x="247" y="1331" width="21" height="20">
<path fill-rule="evenodd" clip-rule="evenodd" d="M247 1331H267.473V1350.5H247V1331Z" fill="white"/>
</mask>
<g mask="url(#mask0_813_1712)">
<path fill-rule="evenodd" clip-rule="evenodd" d="M248.824 1340.12C250.226 1344.48 255.765 1348.01 257.237 1348.89C258.714 1348 264.293 1344.44 265.65 1340.13C266.541 1337.34 265.714 1333.81 262.428 1332.75C260.836 1332.24 258.979 1332.55 257.697 1333.54C257.429 1333.75 257.057 1333.75 256.787 1333.55C255.429 1332.53 253.655 1332.23 252.038 1332.75C248.757 1333.81 247.933 1337.34 248.824 1340.12ZM257.238 1350.5C257.114 1350.5 256.991 1350.47 256.879 1350.41C256.566 1350.24 249.193 1346.17 247.396 1340.58C247.395 1340.58 247.395 1340.58 247.395 1340.58C246.267 1337.06 247.523 1332.63 251.578 1331.32C253.482 1330.71 255.557 1330.98 257.235 1332.04C258.861 1331.01 261.021 1330.73 262.887 1331.32C266.946 1332.63 268.206 1337.06 267.079 1340.58C265.34 1346.11 257.913 1350.23 257.598 1350.41C257.486 1350.47 257.362 1350.5 257.238 1350.5Z" fill="black"/>
</g>
<path fill-rule="evenodd" clip-rule="evenodd" d="M263.154 1338.62C262.767 1338.62 262.439 1338.33 262.407 1337.94C262.341 1337.11 261.791 1336.42 261.008 1336.17C260.613 1336.04 260.397 1335.62 260.524 1335.22C260.653 1334.83 261.072 1334.61 261.468 1334.74C262.831 1335.18 263.786 1336.39 263.903 1337.81C263.936 1338.23 263.629 1338.59 263.216 1338.62C263.195 1338.62 263.175 1338.62 263.154 1338.62Z" fill="black"/>
</svg>
